<?xml version="1.0" encoding="utf-8"?>
<!-- Generator: Adobe Illustrator 27.5.0, SVG Export Plug-In . SVG Version: 6.00 Build 0)  -->
<svg version="1.1" xmlns="http://www.w3.org/2000/svg" xmlns:xlink="http://www.w3.org/1999/xlink" x="0px" y="0px"
	 viewBox="0 0 500 500" style="enable-background:new 0 0 500 500;" xml:space="preserve">
<g id="BACKGROUND">
	<rect style="fill:#212121;" width="500" height="500"/>
</g>
<g id="OBJECTS">
	<g>
		<g>
			<g>
				<g>
					<path style="fill:#DFC974;" d="M101.833,157.772L101.833,157.772c-0.637,0.322-1.145,1.169-1.134,1.895
						c5.279,94.848,62.953,171.257,158.892,209.45c2.509-1.271,3.763-1.906,6.272-3.177
						c-96.424-37.179-156.13-112.444-162.845-207.448C102.997,157.771,102.47,157.449,101.833,157.772z"/>
					<g>
						<path style="fill:#DFC974;" d="M116.674,292.69c9.881,14.624,33.309,28.728,51.626,17.287
							c-0.506-0.522-0.758-0.784-1.26-1.309C149.426,308.299,129.957,303.739,116.674,292.69z"/>
						<path style="fill:#DFC974;" d="M105.079,269.937c8.333,14.55,26.008,29.22,44.628,19.462
							c-0.397-0.539-0.595-0.809-0.988-1.351C132.906,286.82,115.649,281.147,105.079,269.937z"/>
						<path style="fill:#DFC974;" d="M96.154,245.911c5.572,13.888,19.949,29.813,37.754,21.137
							c-0.294-0.544-0.44-0.817-0.731-1.363C118.478,263.4,105.3,256.8,96.154,245.911z"/>
						<path style="fill:#DFC974;" d="M90.036,220.813c2.323,12.645,14.221,30.242,31.028,22.351
							c-0.198-0.539-0.295-0.809-0.49-1.349C120.574,241.816,99.85,238.399,90.036,220.813z"/>
						<path style="fill:#DFC974;" d="M86.865,194.864c0.35,11.047,8.319,29.839,24.477,23.145c-0.108-0.524-0.161-0.786-0.266-1.311
							C111.076,216.698,93.311,212.109,86.865,194.864z"/>
						<path style="fill:#DFC974;" d="M86.832,169.992c-0.801,17.4,6.618,27.58,18.382,23.513c-0.03-0.5-0.045-0.75-0.073-1.251
							C105.141,192.254,90.283,186.654,86.832,169.992z"/>
						<path style="fill:#DFC974;" d="M89.552,145.223c-2.95,16.223,2.002,26.365,12.578,23.569c0.038-0.469,0.057-0.704,0.097-1.174
							C102.228,167.618,90.28,161.128,89.552,145.223z"/>
					</g>
					<path style="fill:#DFC974;" d="M103.069,160.019c-0.477-15.97,0.905-31.977,4.093-47.689
						c-6.227,13.844-11.969,32.962-6.463,47.336C101.222,161.032,102.273,158.826,103.069,160.019z"/>
				</g>
			</g>
			<g>
				<g>
					<path style="fill:#DFC974;" d="M398.167,157.772L398.167,157.772c0.637,0.322,1.145,1.169,1.134,1.895
						c-5.279,94.848-62.953,171.257-158.892,209.45c-2.509-1.271-3.763-1.906-6.272-3.177
						c96.424-37.179,156.13-112.444,162.845-207.448C397.003,157.771,397.53,157.449,398.167,157.772z"/>
					<g>
						<path style="fill:#DFC974;" d="M383.326,292.69c-9.881,14.624-33.309,28.728-51.626,17.287
							c0.506-0.522,0.758-0.784,1.26-1.309C350.574,308.299,370.043,303.739,383.326,292.69z"/>
						<path style="fill:#DFC974;" d="M394.921,269.937c-8.333,14.55-26.008,29.22-44.628,19.462
							c0.397-0.539,0.595-0.809,0.988-1.351C367.094,286.82,384.351,281.147,394.921,269.937z"/>
						<path style="fill:#DFC974;" d="M403.846,245.911c-5.572,13.888-19.949,29.813-37.754,21.137
							c0.294-0.544,0.44-0.817,0.731-1.363C381.522,263.4,394.7,256.8,403.846,245.911z"/>
						<path style="fill:#DFC974;" d="M409.964,220.813c-2.323,12.645-14.221,30.242-31.028,22.351
							c0.198-0.539,0.295-0.809,0.49-1.349C379.426,241.816,400.15,238.399,409.964,220.813z"/>
						<path style="fill:#DFC974;" d="M413.135,194.864c-0.35,11.047-8.319,29.839-24.477,23.145
							c0.108-0.524,0.161-0.786,0.266-1.311C388.924,216.698,406.689,212.109,413.135,194.864z"/>
						<path style="fill:#DFC974;" d="M413.168,169.992c0.801,17.4-6.618,27.58-18.382,23.513c0.03-0.5,0.045-0.75,0.073-1.251
							C394.859,192.254,409.717,186.654,413.168,169.992z"/>
						<path style="fill:#DFC974;" d="M410.448,145.223c2.95,16.223-2.002,26.365-12.578,23.569
							c-0.038-0.469-0.057-0.704-0.097-1.174C397.772,167.618,409.72,161.128,410.448,145.223z"/>
					</g>
					<path style="fill:#DFC974;" d="M396.931,160.019c0.477-15.97-0.905-31.977-4.092-47.689
						c6.227,13.844,11.969,32.962,6.463,47.336C398.778,161.032,397.727,158.826,396.931,160.019z"/>
				</g>
			</g>
			<path style="fill:#DFC974;" d="M240.795,358.239c0,0,137.044-43.446,152.043-196.277
				c-13.902,104.466-84.577,167.185-158.701,192.876L240.795,358.239z"/>
			<path style="fill:#DFC974;" d="M259.205,358.239c0,0-137.044-43.446-152.043-196.277
				c13.902,104.466,84.576,167.185,158.701,192.876L259.205,358.239z"/>
		</g>
		<g>
			<g>
				
					<text transform="matrix(1 0 0 1 212.1411 245.1289)" style="fill:#DFC974; font-family:'PlayfairDisplay-Regular'; font-size:128.7958px;">L</text>
			</g>
		</g>
		<text transform="matrix(1 0 0 1 174.8394 408.2617)"><tspan x="0" y="0" style="fill:#DFC974; font-family:'PlayfairDisplay-Regular'; font-size:39.004px;">LUXURY</tspan><tspan x="49.527" y="21.688" style="fill:#AB9952; font-family:'PlayfairDisplay-Regular'; font-size:18.0731px;">LOGO</tspan></text>
		<g>
			<g>
				<g>
					<path style="fill:#DFC974;" d="M240.409,369.116H166.58c-4.719,0-9.244,0.48-12.581-2.856l-2.371-2.371l0.226-0.226
						c1.255-1.255,3.288-1.255,4.543,0l0.099,0.099c2.674,2.674,6.301,1.821,10.082,1.821h73.83V369.116z"/>
				</g>
				<g>
					<path style="fill:#DFC974;" d="M163.597,369.926c-3.115,1.938-7.492,1.288-9.753,0.773c-3.514-0.8-5.509-2.222-7.553-4.267
						l-2.155-2.542h0c1.309-1.309,3.461-1.243,4.682,0.149c0.04,0.046,0.077,0.087,0.11,0.123c2.291,2.522,4.456,4.278,6.721,5.151
						C159.402,370.76,163.597,369.926,163.597,369.926z"/>
				</g>
				<g>
					<path style="fill:#DFC974;" d="M152.299,371.471c-6.609,0-10.056-1.679-13.416-5.04l-2.155-2.542h0
						c1.309-1.309,3.461-1.243,4.682,0.149c0.04,0.046,0.077,0.087,0.11,0.123C148,371.297,152.299,371.471,152.299,371.471z"/>
				</g>
				<g>
					<path style="fill:#DFC974;" d="M144.904,371.471c-6.844,0-10.07-1.679-13.43-5.04l-2.155-2.542l0,0
						c1.309-1.309,3.461-1.243,4.682,0.149c0.04,0.046,0.077,0.087,0.11,0.123C140.591,371.297,144.904,371.471,144.904,371.471z"/>
				</g>
				<path style="fill:#DFC974;" d="M131.22,367.403l-1.901,2.243c1.292,1.292,3.401,1.238,4.629-0.1
					C132.979,368.947,132.099,368.234,131.22,367.403z"/>
			</g>
			<path style="fill:#DFC974;" d="M129.998,366.132h-1.693h-8.953l6.187-1.034c-0.162-0.137-0.328-0.271-0.47-0.433l-1.29-1.473
				l-11.775,3.575l11.775,3.575l1.29-1.473c0.817-0.932,1.996-1.467,3.235-1.467h1.693l0.549-0.635L129.998,366.132z"/>
		</g>
		<g>
			<g>
				<g>
					<path style="fill:#DFC974;" d="M259.62,369.116h73.829c4.719,0,9.244,0.48,12.581-2.856l2.371-2.371l-0.226-0.226
						c-1.255-1.255-3.289-1.255-4.543,0l-0.099,0.099c-2.674,2.674-6.301,1.821-10.082,1.821h-73.83V369.116z"/>
				</g>
				<g>
					<path style="fill:#DFC974;" d="M336.432,369.926c3.115,1.938,7.492,1.288,9.753,0.773c3.514-0.8,5.509-2.222,7.553-4.267
						l2.155-2.542l0,0c-1.309-1.309-3.461-1.243-4.682,0.149c-0.04,0.046-0.077,0.087-0.11,0.123
						c-2.291,2.522-4.456,4.278-6.721,5.151C340.627,370.76,336.432,369.926,336.432,369.926z"/>
				</g>
				<g>
					<path style="fill:#DFC974;" d="M347.73,371.471c6.609,0,10.056-1.679,13.416-5.04l2.155-2.542l0,0
						c-1.309-1.309-3.461-1.243-4.682,0.149c-0.04,0.046-0.077,0.087-0.11,0.123C352.029,371.297,347.73,371.471,347.73,371.471z"/>
				</g>
				<g>
					<path style="fill:#DFC974;" d="M355.124,371.471c6.844,0,10.07-1.679,13.43-5.04l2.155-2.542l0,0
						c-1.309-1.309-3.461-1.243-4.682,0.149c-0.04,0.046-0.077,0.087-0.11,0.123C359.437,371.297,355.124,371.471,355.124,371.471z"
						/>
				</g>
				<path style="fill:#DFC974;" d="M368.808,367.403l1.901,2.243c-1.292,1.292-3.401,1.238-4.629-0.1
					C367.05,368.947,367.93,368.234,368.808,367.403z"/>
			</g>
			<path style="fill:#DFC974;" d="M370.03,366.132h1.693h8.953l-6.187-1.034c0.162-0.137,0.328-0.271,0.47-0.433l1.29-1.473
				l11.775,3.575l-11.775,3.575l-1.29-1.473c-0.817-0.932-1.996-1.467-3.235-1.467h-1.693l-0.549-0.635L370.03,366.132z"/>
		</g>
		<g>
			<path style="fill:#DFC974;" d="M277.574,422.792h16.744c1.24,0,2.419-0.535,3.235-1.467l1.29-1.473l11.775,3.575l-11.775,3.575
				l-1.29-1.473c-0.817-0.932-1.996-1.467-3.235-1.467h-16.744V422.792z"/>
			<path style="fill:#DFC974;" d="M222.426,422.792h-16.744c-1.24,0-2.419-0.535-3.235-1.467l-1.29-1.473l-11.774,3.575
				l11.774,3.575l1.29-1.473c0.817-0.932,1.996-1.467,3.235-1.467h16.744V422.792z"/>
		</g>
		<g>
			<g>
				<g>
					<path style="fill:#DFC974;" d="M250,326.081l-2.948-2.762c-0.099-0.092-11.944-10.851-49.464-25.622
						c-39.552-15.572-44.077-61.31-31.016-99.73c13.554-39.87-8.279-78.234-8.501-78.616l-1.508-2.6l32.072-38.641l3.306,2.671
						c17.791,14.375,42.682,21.896,58.074,21.896s40.283-7.521,58.074-21.896l3.306-2.671l32.072,38.641l-1.506,2.596
						c-0.222,0.384-22.019,38.865-8.504,78.62c13.061,38.421,8.536,84.158-31.017,99.73c-37.52,14.771-49.365,25.53-49.481,25.637
						L250,326.081z M166.958,117.712c5.036,9.912,20.587,45.32,7.768,83.028c-8.764,25.78-13.147,73.524,26.017,88.944
						c29.354,11.556,43.66,20.808,49.271,24.985c5.611-4.177,19.918-13.43,49.271-24.985c39.163-15.419,34.781-63.164,26.017-88.944
						c-12.819-37.707,2.732-73.116,7.768-83.028l-22.936-27.634c-19.776,14.553-44.628,21.213-60.12,21.213
						c-15.492,0-40.344-6.66-60.12-21.213L166.958,117.712z"/>
				</g>
				<g>
					<path style="fill:#DFC974;" d="M250.014,308.843l-0.242-0.164c-7.648-5.193-22.061-13.469-47.294-23.404
						c-14.734-5.801-23.995-17.15-27.527-33.731c-3.058-14.357-1.505-32.318,4.26-49.279c12.321-36.242-0.474-70.555-6.547-83.625
						l-0.114-0.247l18.2-21.927l0.323,0.215c20.103,13.367,44.088,19.35,58.941,19.35c14.853,0,38.838-5.983,58.941-19.35
						l0.323-0.215l18.2,21.927l-0.114,0.247c-6.073,13.07-18.867,47.382-6.547,83.625c5.766,16.962,7.318,34.923,4.26,49.279
						c-3.532,16.581-12.793,27.93-27.528,33.731c-25.228,9.932-39.643,18.209-47.294,23.404L250.014,308.843z M173.561,118.523
						c6.161,13.347,18.81,47.708,6.466,84.019c-5.717,16.818-7.26,34.613-4.233,48.822c3.468,16.281,12.552,27.421,27,33.11
						c25.044,9.859,39.476,18.101,47.22,23.328c7.747-5.229,22.181-13.472,47.22-23.328c14.448-5.69,23.533-16.829,27-33.11
						c3.027-14.209,1.484-32.004-4.233-48.822c-12.344-36.31,0.305-70.672,6.466-84.019L309.11,97.61
						c-20.186,13.316-44.193,19.28-59.095,19.28s-38.909-5.964-59.095-19.28L173.561,118.523z"/>
				</g>
			</g>
			<g>
				<path style="fill:#7D6E2E;" d="M297.39,298.739c-4.583,1.78-10.67,4.198-16.628,6.833c-5.973,2.612-11.764,5.52-15.949,7.944
					c-4.191,2.415-6.844,4.244-6.844,4.244s2.608-1.89,6.747-4.406c4.133-2.525,9.869-5.575,15.793-8.33
					c5.909-2.779,11.95-5.341,16.497-7.229c4.56-1.866,7.601-3.109,7.601-3.109s-3.083,1.205-7.708,3.012
					c-4.612,1.83-10.74,4.318-16.746,7.03c-6.02,2.687-11.859,5.694-16.085,8.19c-4.232,2.487-6.899,4.383-6.899,4.383
					s2.634-1.939,6.829-4.499c4.188-2.569,9.988-5.677,15.973-8.467c5.97-2.815,12.065-5.406,16.652-7.314
					c4.599-1.884,7.665-3.141,7.665-3.141s-3.087,1.206-7.716,3.015c-4.619,1.833-10.757,4.325-16.783,7.046
					c-6.039,2.696-11.911,5.719-16.166,8.234c-4.262,2.505-6.95,4.416-6.95,4.416s2.655-1.954,6.88-4.532
					c4.218-2.587,10.05-5.712,16.054-8.51c5.99-2.825,12.096-5.42,16.689-7.33c4.604-1.886,7.674-3.144,7.674-3.144
					s-3.09,1.207-7.725,3.019c-4.625,1.835-10.774,4.331-16.82,7.062c-6.058,2.704-11.963,5.744-16.248,8.277
					c-4.292,2.523-7.001,4.449-7.001,4.449s2.677-1.97,6.932-4.565c4.247-2.605,10.113-5.746,16.136-8.554
					c6.011-2.834,12.127-5.433,16.726-7.346c4.61-1.888,7.683-3.148,7.683-3.148s-3.094,1.209-7.734,3.022
					c-4.631,1.838-10.791,4.338-16.857,7.078c-6.077,2.713-12.015,5.769-16.33,8.32c-4.322,2.54-7.052,4.482-7.052,4.482
					s2.698-1.985,6.983-4.598c4.277-2.623,10.176-5.781,16.218-8.597c6.031-2.843,12.157-5.447,16.763-7.362
					c4.615-1.891,7.692-3.151,7.692-3.151s-3.097,1.21-7.743,3.026c-4.637,1.84-10.807,4.345-16.893,7.094
					c-6.096,2.722-12.066,5.794-16.411,8.363c-4.351,2.558-7.103,4.515-7.103,4.515s2.719-2,7.034-4.631
					c4.307-2.641,10.239-5.815,16.299-8.64c6.051-2.852,12.188-5.46,16.8-7.378c4.62-1.893,7.701-3.155,7.701-3.155
					s-3.09,1.21-7.726,3.026c-4.628,1.841-10.788,4.346-16.874,7.099c-6.094,2.726-12.079,5.803-16.439,8.382
					c-4.366,2.569-7.133,4.528-7.133,4.528s2.724-2.019,7.039-4.685c4.309-2.677,10.241-5.891,16.287-8.756
					c6.038-2.893,12.154-5.537,16.747-7.483c4.601-1.92,7.669-3.2,7.669-3.2s-3.8,1.525-9.501,3.812
					c-5.689,2.331-13.262,5.53-20.701,9.193c-7.451,3.631-14.655,7.999-19.738,11.714c-0.918,0.683-1.76,1.31-2.507,1.865
					c-0.048,0.037-0.09,0.07-0.134,0.104v8.401l0.062,0.045c0.05-0.024,0.098-0.072,0.148-0.108l0.298-0.233
					c0.201-0.157,0.405-0.316,0.614-0.479c0.417-0.325,0.848-0.662,1.295-1.01c0.446-0.348,0.906-0.707,1.38-1.077
					c0.217-0.168,0.437-0.339,0.661-0.512l0.403-0.298c0.544-0.403,1.115-0.827,1.712-1.269c4.794-3.5,11.569-7.618,18.779-11.135
					c7.191-3.542,14.646-6.695,20.271-8.999c5.648-2.266,9.414-3.777,9.414-3.777S301.986,296.981,297.39,298.739z"/>
				<path style="fill:#7D6E2E;" d="M334.1,117.617c-0.106,0.217-0.217,0.447-0.335,0.693c-0.885,1.819-2.063,4.432-3.362,7.614
					c-2.566,6.368-5.547,15.063-7.333,24.114c-0.858,4.528-1.544,9.107-1.789,13.458c-0.097,2.178-0.296,4.273-0.185,6.286
					c0.022,1.003,0.044,1.979,0.065,2.923c0.011,0.472,0.022,0.936,0.033,1.391c0.032,0.455,0.091,0.902,0.135,1.34
					c0.19,1.751,0.364,3.356,0.518,4.778c0.212,1.417,0.521,2.64,0.714,3.653c0.423,2.022,0.664,3.178,0.664,3.178
					s-0.183-0.937-0.504-2.576c-0.312-1.639-0.854-3.97-1.027-6.809c-0.067-0.707-0.136-1.444-0.208-2.206
					c-0.085-0.762-0.146-1.549-0.13-2.359c-0.014-1.617-0.029-3.323-0.044-5.088c0.085-1.755,0.226-3.564,0.343-5.402
					c0.106-1.84,0.447-3.674,0.664-5.525c1.075-7.374,3.017-14.53,4.735-19.784c0.442-1.31,0.848-2.51,1.207-3.575
					c0.394-1.051,0.737-1.967,1.019-2.722c0.553-1.513,0.915-2.36,0.915-2.36s-0.345,0.854-0.867,2.378
					c-0.267,0.76-0.591,1.682-0.963,2.74c-0.337,1.07-0.717,2.278-1.132,3.595c-1.608,5.281-3.398,12.458-4.316,19.808
					c-0.178,1.844-0.48,3.671-0.548,5.499c-0.079,1.826-0.182,3.621-0.232,5.36c0.05,1.745,0.099,3.431,0.145,5.03
					c0,0.8,0.076,1.576,0.175,2.326c0.086,0.75,0.169,1.475,0.249,2.171c0.225,2.793,0.806,5.073,1.143,6.676
					c0.346,1.601,0.543,2.516,0.543,2.516s-0.186-0.925-0.512-2.543c-0.162-0.809-0.358-1.791-0.583-2.918
					c-0.055-0.282-0.112-0.572-0.17-0.872c-0.031-0.302-0.063-0.614-0.095-0.933c-0.065-0.639-0.133-1.31-0.204-2.011
					c-0.07-0.701-0.144-1.43-0.22-2.185c-0.038-0.378-0.076-0.761-0.115-1.151c-0.007-0.391-0.013-0.787-0.02-1.189
					c-0.024-1.607-0.049-3.302-0.075-5.055c0.104-1.744,0.211-3.547,0.319-5.378c0.118-1.83,0.431-3.664,0.64-5.51
					c1.043-7.359,2.959-14.524,4.663-19.788c0.833-2.641,1.64-4.801,2.203-6.314c0.274-0.759,0.499-1.351,0.667-1.75
					c0.161-0.401,0.248-0.615,0.248-0.615s-0.083,0.215-0.239,0.618c-0.162,0.401-0.378,0.996-0.641,1.759
					c-0.54,1.521-1.315,3.691-2.108,6.342c-1.626,5.284-3.432,12.464-4.364,19.806c-0.181,1.842-0.466,3.67-0.557,5.492
					c-0.082,1.821-0.162,3.614-0.24,5.348c0.051,1.739,0.1,3.419,0.147,5.013c0.012,0.398,0.025,0.791,0.037,1.178
					c0.044,0.386,0.088,0.765,0.131,1.139c0.086,0.746,0.169,1.468,0.249,2.16c0.08,0.692,0.157,1.355,0.23,1.986
					c0.037,0.315,0.072,0.622,0.107,0.921c0.062,0.295,0.123,0.581,0.181,0.859c0.238,1.109,0.446,2.076,0.617,2.872
					c0.344,1.591,0.54,2.5,0.54,2.5s-0.183-0.912-0.503-2.508c-0.159-0.798-0.353-1.766-0.575-2.877
					c-0.054-0.278-0.111-0.564-0.168-0.86c-0.03-0.299-0.062-0.606-0.094-0.922c-0.064-0.631-0.131-1.294-0.201-1.986
					c-0.07-0.692-0.142-1.412-0.217-2.158c-0.037-0.373-0.075-0.752-0.114-1.137c-0.006-0.386-0.013-0.778-0.019-1.176
					c-0.023-1.589-0.048-3.265-0.074-4.999c0.103-1.727,0.209-3.512,0.317-5.326c0.116-1.812,0.428-3.631,0.635-5.461
					c1.035-7.296,2.937-14.413,4.631-19.644c0.828-2.624,1.63-4.771,2.189-6.275c0.272-0.754,0.496-1.343,0.663-1.739
					c0.161-0.398,0.246-0.611,0.246-0.611s-0.082,0.214-0.237,0.614c-0.161,0.398-0.376,0.99-0.637,1.749
					c-0.536,1.511-1.307,3.669-2.095,6.303c-1.615,5.25-3.408,12.382-4.331,19.661c-0.179,1.825-0.463,3.639-0.551,5.443
					c-0.081,1.803-0.16,3.578-0.237,5.295c0.051,1.719,0.1,3.381,0.146,4.957c0.012,0.394,0.024,0.782,0.036,1.165
					c0.044,0.381,0.087,0.756,0.13,1.124c0.085,0.737,0.168,1.449,0.246,2.133c0.079,0.683,0.155,1.338,0.227,1.961
					c0.036,0.311,0.071,0.615,0.105,0.909c0.062,0.291,0.121,0.573,0.179,0.847c0.235,1.093,0.44,2.047,0.609,2.832
					c0.338,1.569,0.531,2.465,0.531,2.465s-0.18-0.899-0.495-2.473c-0.157-0.787-0.348-1.742-0.567-2.837
					c-0.054-0.274-0.109-0.556-0.167-0.848c-0.03-0.295-0.06-0.598-0.092-0.91c-0.063-0.623-0.129-1.278-0.198-1.961
					c-0.069-0.683-0.14-1.395-0.215-2.131c-0.037-0.368-0.075-0.742-0.113-1.122c-0.006-0.382-0.012-0.77-0.019-1.163
					c-0.023-1.572-0.048-3.229-0.073-4.943c0.102-1.71,0.207-3.477,0.314-5.273c0.115-1.794,0.425-3.599,0.629-5.412
					c1.026-7.234,2.915-14.303,4.599-19.5c0.823-2.608,1.62-4.741,2.176-6.236c0.27-0.75,0.493-1.335,0.659-1.729
					c0.16-0.396,0.245-0.607,0.245-0.607s-0.082,0.212-0.236,0.611c-0.16,0.396-0.374,0.984-0.633,1.738
					c-0.533,1.502-1.299,3.646-2.082,6.264c-1.605,5.217-3.384,12.301-4.299,19.518c-0.177,1.808-0.459,3.608-0.546,5.393
					c-0.08,1.785-0.159,3.542-0.235,5.243c0.05,1.7,0.099,3.343,0.145,4.901c0.012,0.389,0.024,0.773,0.035,1.152
					c0.044,0.376,0.087,0.746,0.129,1.11c0.084,0.728,0.166,1.431,0.244,2.106c0.078,0.675,0.153,1.321,0.224,1.936
					c0.035,0.307,0.07,0.607,0.104,0.898c0.061,0.287,0.12,0.565,0.177,0.835c0.232,1.078,0.435,2.018,0.602,2.791
					c0.333,1.547,0.523,2.431,0.523,2.431s-0.177-0.887-0.487-2.439c-0.155-0.775-0.343-1.717-0.559-2.797
					c-0.053-0.27-0.108-0.549-0.164-0.835c-0.029-0.291-0.059-0.591-0.09-0.899c-0.062-0.615-0.127-1.262-0.195-1.936
					c-0.068-0.674-0.139-1.377-0.212-2.104c-0.037-0.363-0.074-0.733-0.112-1.108c-0.006-0.378-0.012-0.761-0.018-1.15
					c-0.023-1.554-0.047-3.192-0.072-4.887c0.101-1.693,0.206-3.442,0.312-5.22c0.113-1.776,0.422-3.566,0.624-5.363
					c1.018-7.171,2.894-14.192,4.567-19.356c0.817-2.591,1.61-4.712,2.162-6.197c0.269-0.745,0.49-1.327,0.655-1.718
					c0.159-0.394,0.243-0.604,0.243-0.604s-0.081,0.211-0.234,0.607c-0.159,0.393-0.372,0.978-0.629,1.727
					c-0.53,1.493-1.29,3.624-2.068,6.224c-1.594,5.183-3.361,12.22-4.267,19.374c-0.175,1.792-0.455,3.576-0.541,5.344
					c-0.079,1.767-0.157,3.507-0.232,5.19c0.05,1.681,0.099,3.305,0.144,4.846c0.012,0.385,0.023,0.764,0.034,1.138
					c0.043,0.371,0.086,0.736,0.128,1.096c0.083,0.718,0.164,1.412,0.241,2.079c0.077,0.666,0.151,1.304,0.221,1.911
					c0.035,0.303,0.069,0.599,0.102,0.887c0.06,0.282,0.119,0.557,0.175,0.822c0.229,1.062,0.429,1.988,0.594,2.751
					c0.327,1.525,0.515,2.396,0.515,2.396s-0.174-0.874-0.478-2.404c-0.153-0.764-0.338-1.692-0.551-2.756
					c-0.052-0.266-0.107-0.541-0.162-0.823c-0.029-0.288-0.058-0.584-0.089-0.887c-0.061-0.607-0.125-1.245-0.191-1.912
					c-0.067-0.666-0.137-1.359-0.209-2.077c-0.036-0.359-0.073-0.723-0.111-1.094c-0.006-0.373-0.011-0.752-0.017-1.136
					c-0.023-1.536-0.046-3.156-0.071-4.831c0.1-1.676,0.204-3.408,0.309-5.167c0.112-1.759,0.418-3.533,0.619-5.313
					c1.009-7.109,2.872-14.081,4.534-19.212c0.812-2.574,1.6-4.682,2.149-6.158c0.267-0.741,0.487-1.319,0.651-1.707
					c0.158-0.391,0.242-0.6,0.242-0.6s-0.081,0.21-0.233,0.603c-0.158,0.391-0.369,0.972-0.625,1.717
					c-0.526,1.484-1.282,3.602-2.055,6.185c-1.584,5.15-3.337,12.138-4.235,19.23c-0.172,1.775-0.451,3.545-0.536,5.295
					c-0.078,1.749-0.155,3.471-0.23,5.137c0.05,1.661,0.098,3.267,0.143,4.79c0.012,0.38,0.023,0.756,0.034,1.125
					c0.043,0.366,0.085,0.727,0.127,1.081c0.083,0.709,0.162,1.394,0.239,2.051c0.076,0.657,0.148,1.287,0.218,1.886
					c0.034,0.299,0.068,0.591,0.1,0.875c0.06,0.278,0.117,0.549,0.173,0.811c0.226,1.047,0.423,1.959,0.586,2.71
					c0.322,1.502,0.506,2.361,0.506,2.361s-0.171-0.859-0.47-2.361c-0.151-0.751-0.334-1.662-0.544-2.707
					c-0.052-0.261-0.107-0.531-0.162-0.809c-0.028-0.283-0.057-0.574-0.087-0.873c-0.06-0.597-0.123-1.225-0.189-1.881
					c-0.066-0.655-0.136-1.337-0.208-2.044c-0.036-0.353-0.073-0.712-0.11-1.076c-0.007-0.368-0.013-0.741-0.02-1.12
					c-0.023-1.514-0.048-3.11-0.073-4.762c0.097-1.654,0.197-3.363,0.298-5.1c0.099-1.736,0.409-3.491,0.603-5.25
					c0.986-7.028,2.818-13.936,4.455-19.023c0.804-2.551,1.573-4.643,2.12-6.105c0.523-1.47,0.878-2.289,0.878-2.289
					s-0.338,0.826-0.831,2.307c-0.517,1.472-1.243,3.579-1.993,6.143c-1.53,5.113-3.215,12.042-4.049,19.046
					c-0.156,1.753-0.429,3.501-0.491,5.225c-0.065,1.723-0.129,3.419-0.191,5.059c0.059,1.632,0.117,3.21,0.171,4.706
					c0.014,0.374,0.029,0.742,0.043,1.105c0.045,0.359,0.089,0.712,0.132,1.06c0.085,0.694,0.168,1.365,0.247,2.009
					c0.078,0.644,0.153,1.26,0.224,1.847c0.035,0.293,0.07,0.579,0.103,0.857c0.061,0.271,0.12,0.535,0.177,0.791
					c0.228,1.022,0.427,1.912,0.591,2.646c0.323,1.466,0.508,2.303,0.508,2.303s-0.213-1.035-0.586-2.846
					c-0.171-0.909-0.455-1.996-0.646-3.273c-0.139-1.288-0.296-2.742-0.466-4.327c-0.04-0.397-0.096-0.8-0.126-1.214
					c-0.009-0.417-0.018-0.842-0.026-1.275c-0.019-0.865-0.039-1.758-0.059-2.677c-0.11-1.834,0.085-3.785,0.171-5.797
					c0.224-4.027,0.868-8.317,1.673-12.579c1.68-8.526,4.525-16.838,6.971-22.907c1.238-3.031,2.359-5.52,3.188-7.222
					c0.409-0.859,0.74-1.514,0.968-1.956c0.157-0.303,0.894-1.647,1.301-2.389L334.1,117.617z"/>
				<path style="fill:#7D6E2E;" d="M165.9,117.617c0.106,0.217,0.217,0.447,0.335,0.693c0.885,1.819,2.063,4.432,3.362,7.614
					c2.566,6.368,5.547,15.063,7.333,24.114c0.857,4.528,1.544,9.107,1.789,13.458c0.097,2.178,0.296,4.273,0.185,6.286
					c-0.022,1.003-0.044,1.979-0.065,2.923c-0.011,0.472-0.022,0.936-0.033,1.391c-0.032,0.455-0.092,0.902-0.135,1.34
					c-0.19,1.751-0.364,3.356-0.518,4.778c-0.212,1.417-0.521,2.64-0.714,3.653c-0.423,2.022-0.665,3.178-0.665,3.178
					s0.183-0.937,0.504-2.576c0.312-1.639,0.854-3.97,1.027-6.809c0.067-0.707,0.136-1.444,0.208-2.206
					c0.085-0.762,0.146-1.549,0.13-2.359c0.014-1.617,0.029-3.323,0.044-5.088c-0.085-1.755-0.226-3.564-0.343-5.402
					c-0.106-1.84-0.447-3.674-0.664-5.525c-1.075-7.374-3.017-14.53-4.735-19.784c-0.442-1.31-0.848-2.51-1.207-3.575
					c-0.394-1.051-0.737-1.967-1.019-2.722c-0.553-1.513-0.915-2.36-0.915-2.36s0.345,0.854,0.867,2.378
					c0.267,0.76,0.591,1.682,0.963,2.74c0.337,1.07,0.717,2.278,1.132,3.595c1.608,5.281,3.397,12.458,4.316,19.808
					c0.178,1.844,0.48,3.671,0.548,5.499c0.079,1.826,0.183,3.621,0.232,5.36c-0.05,1.745-0.099,3.431-0.145,5.03
					c0,0.8-0.076,1.576-0.175,2.326c-0.086,0.75-0.169,1.475-0.249,2.171c-0.226,2.793-0.806,5.073-1.143,6.676
					c-0.345,1.601-0.543,2.516-0.543,2.516s0.186-0.925,0.512-2.543c0.162-0.809,0.358-1.791,0.583-2.918
					c0.055-0.282,0.112-0.572,0.17-0.872c0.031-0.302,0.063-0.614,0.095-0.933c0.065-0.639,0.133-1.31,0.204-2.011
					c0.07-0.701,0.144-1.43,0.22-2.185c0.038-0.378,0.076-0.761,0.115-1.151c0.007-0.391,0.013-0.787,0.02-1.189
					c0.024-1.607,0.049-3.302,0.075-5.055c-0.104-1.744-0.211-3.547-0.319-5.378c-0.118-1.83-0.431-3.664-0.64-5.51
					c-1.043-7.359-2.959-14.524-4.663-19.788c-0.833-2.641-1.64-4.801-2.203-6.314c-0.274-0.759-0.499-1.351-0.667-1.75
					c-0.161-0.401-0.248-0.615-0.248-0.615s0.083,0.215,0.238,0.618c0.162,0.401,0.379,0.996,0.641,1.759
					c0.54,1.521,1.315,3.691,2.108,6.342c1.626,5.284,3.432,12.464,4.363,19.806c0.181,1.842,0.466,3.67,0.557,5.492
					c0.082,1.821,0.162,3.614,0.24,5.348c-0.051,1.739-0.1,3.419-0.147,5.013c-0.012,0.398-0.025,0.791-0.037,1.178
					c-0.044,0.386-0.088,0.765-0.131,1.139c-0.086,0.746-0.169,1.468-0.249,2.16c-0.08,0.692-0.157,1.355-0.23,1.986
					c-0.037,0.315-0.072,0.622-0.107,0.921c-0.062,0.295-0.123,0.581-0.181,0.859c-0.238,1.109-0.446,2.076-0.617,2.872
					c-0.344,1.591-0.54,2.5-0.54,2.5s0.183-0.912,0.503-2.508c0.159-0.798,0.353-1.766,0.575-2.877
					c0.054-0.278,0.111-0.564,0.168-0.86c0.03-0.299,0.062-0.606,0.094-0.922c0.064-0.631,0.131-1.294,0.201-1.986
					c0.07-0.692,0.142-1.412,0.217-2.158c0.037-0.373,0.075-0.752,0.114-1.137c0.006-0.386,0.013-0.778,0.019-1.176
					c0.023-1.589,0.048-3.265,0.074-4.999c-0.103-1.727-0.209-3.512-0.317-5.326c-0.116-1.812-0.428-3.631-0.635-5.461
					c-1.035-7.296-2.937-14.413-4.631-19.644c-0.828-2.624-1.63-4.771-2.189-6.275c-0.272-0.754-0.496-1.343-0.663-1.739
					c-0.161-0.398-0.246-0.611-0.246-0.611s0.082,0.214,0.237,0.614c0.161,0.398,0.376,0.99,0.637,1.749
					c0.536,1.511,1.307,3.669,2.095,6.303c1.615,5.25,3.408,12.382,4.331,19.661c0.179,1.825,0.463,3.639,0.552,5.443
					c0.081,1.803,0.16,3.578,0.237,5.295c-0.051,1.719-0.1,3.381-0.146,4.957c-0.012,0.394-0.024,0.782-0.036,1.165
					c-0.044,0.381-0.087,0.756-0.13,1.124c-0.085,0.737-0.168,1.449-0.247,2.133c-0.079,0.683-0.155,1.338-0.227,1.961
					c-0.036,0.311-0.071,0.615-0.105,0.909c-0.062,0.291-0.121,0.573-0.179,0.847c-0.235,1.093-0.441,2.047-0.609,2.832
					c-0.338,1.569-0.531,2.465-0.531,2.465s0.18-0.899,0.495-2.473c0.157-0.787,0.348-1.742,0.567-2.837
					c0.054-0.274,0.109-0.556,0.167-0.848c0.03-0.295,0.06-0.598,0.092-0.91c0.063-0.623,0.129-1.278,0.198-1.961
					c0.069-0.683,0.14-1.395,0.215-2.131c0.037-0.368,0.075-0.742,0.113-1.122c0.006-0.382,0.012-0.77,0.019-1.163
					c0.023-1.572,0.048-3.229,0.073-4.943c-0.102-1.71-0.207-3.477-0.314-5.273c-0.115-1.794-0.425-3.599-0.629-5.412
					c-1.026-7.234-2.915-14.303-4.599-19.5c-0.823-2.608-1.62-4.741-2.176-6.236c-0.27-0.75-0.493-1.335-0.659-1.729
					c-0.16-0.396-0.245-0.607-0.245-0.607s0.082,0.212,0.236,0.611c0.16,0.396,0.374,0.984,0.633,1.738
					c0.533,1.502,1.299,3.646,2.082,6.264c1.605,5.217,3.384,12.301,4.299,19.518c0.177,1.808,0.459,3.608,0.546,5.393
					c0.08,1.785,0.159,3.542,0.235,5.243c-0.05,1.7-0.099,3.343-0.145,4.901c-0.012,0.389-0.024,0.773-0.035,1.152
					c-0.044,0.376-0.087,0.746-0.129,1.11c-0.084,0.728-0.166,1.431-0.244,2.106c-0.078,0.675-0.153,1.321-0.224,1.936
					c-0.035,0.307-0.07,0.607-0.104,0.898c-0.061,0.287-0.12,0.565-0.177,0.835c-0.232,1.078-0.435,2.018-0.602,2.791
					c-0.333,1.547-0.523,2.431-0.523,2.431s0.177-0.887,0.487-2.439c0.155-0.775,0.343-1.717,0.559-2.797
					c0.053-0.27,0.108-0.549,0.164-0.835c0.029-0.291,0.059-0.591,0.09-0.899c0.062-0.615,0.127-1.262,0.195-1.936
					c0.068-0.674,0.139-1.377,0.212-2.104c0.037-0.363,0.074-0.733,0.112-1.108c0.006-0.378,0.012-0.761,0.018-1.15
					c0.023-1.554,0.047-3.192,0.072-4.887c-0.101-1.693-0.206-3.442-0.312-5.22c-0.113-1.776-0.422-3.566-0.624-5.363
					c-1.018-7.171-2.894-14.192-4.567-19.356c-0.817-2.591-1.61-4.712-2.162-6.197c-0.269-0.745-0.49-1.327-0.655-1.718
					c-0.159-0.394-0.243-0.604-0.243-0.604s0.081,0.211,0.234,0.607c0.159,0.393,0.372,0.978,0.629,1.727
					c0.53,1.493,1.29,3.624,2.068,6.224c1.594,5.183,3.361,12.22,4.267,19.374c0.175,1.792,0.455,3.576,0.541,5.344
					c0.079,1.767,0.157,3.507,0.232,5.19c-0.05,1.681-0.098,3.305-0.144,4.846c-0.012,0.385-0.023,0.764-0.034,1.138
					c-0.043,0.371-0.086,0.736-0.128,1.096c-0.083,0.718-0.164,1.412-0.241,2.079c-0.077,0.666-0.151,1.304-0.221,1.911
					c-0.035,0.303-0.069,0.599-0.102,0.887c-0.06,0.282-0.119,0.557-0.175,0.822c-0.229,1.062-0.429,1.988-0.594,2.751
					c-0.327,1.525-0.515,2.396-0.515,2.396s0.174-0.874,0.478-2.404c0.153-0.764,0.338-1.692,0.551-2.756
					c0.053-0.266,0.107-0.541,0.163-0.823c0.029-0.288,0.058-0.584,0.089-0.887c0.061-0.607,0.125-1.245,0.191-1.912
					c0.067-0.666,0.137-1.359,0.209-2.077c0.036-0.359,0.073-0.723,0.111-1.094c0.006-0.373,0.011-0.752,0.017-1.136
					c0.023-1.536,0.046-3.156,0.071-4.831c-0.1-1.676-0.204-3.408-0.309-5.167c-0.112-1.759-0.418-3.533-0.619-5.313
					c-1.009-7.109-2.872-14.081-4.534-19.212c-0.812-2.574-1.6-4.682-2.149-6.158c-0.267-0.741-0.487-1.319-0.651-1.707
					c-0.158-0.391-0.242-0.6-0.242-0.6s0.081,0.21,0.233,0.603c0.158,0.391,0.369,0.972,0.625,1.717
					c0.526,1.484,1.282,3.602,2.055,6.185c1.584,5.15,3.337,12.138,4.235,19.23c0.172,1.775,0.451,3.545,0.536,5.295
					c0.078,1.749,0.155,3.471,0.23,5.137c-0.05,1.661-0.098,3.267-0.143,4.79c-0.011,0.38-0.023,0.756-0.034,1.125
					c-0.043,0.366-0.085,0.727-0.127,1.081c-0.082,0.709-0.162,1.394-0.239,2.051c-0.076,0.657-0.148,1.287-0.218,1.886
					c-0.034,0.299-0.068,0.591-0.1,0.875c-0.059,0.278-0.117,0.549-0.173,0.811c-0.226,1.047-0.423,1.959-0.586,2.71
					c-0.322,1.502-0.506,2.361-0.506,2.361s0.171-0.859,0.47-2.361c0.151-0.751,0.334-1.662,0.544-2.707
					c0.053-0.261,0.107-0.531,0.162-0.809c0.028-0.283,0.057-0.574,0.087-0.873c0.06-0.597,0.123-1.225,0.189-1.881
					c0.067-0.655,0.136-1.337,0.208-2.044c0.036-0.353,0.073-0.712,0.11-1.076c0.007-0.368,0.014-0.741,0.02-1.12
					c0.023-1.514,0.048-3.11,0.073-4.762c-0.097-1.654-0.197-3.363-0.298-5.1c-0.099-1.736-0.409-3.491-0.603-5.25
					c-0.986-7.028-2.818-13.936-4.455-19.023c-0.804-2.551-1.573-4.643-2.12-6.105c-0.523-1.47-0.878-2.289-0.878-2.289
					s0.338,0.826,0.831,2.307c0.517,1.472,1.243,3.579,1.993,6.143c1.53,5.113,3.214,12.042,4.049,19.046
					c0.156,1.753,0.429,3.501,0.491,5.225c0.065,1.723,0.129,3.419,0.19,5.059c-0.059,1.632-0.117,3.21-0.171,4.706
					c-0.015,0.374-0.029,0.742-0.043,1.105c-0.045,0.359-0.089,0.712-0.132,1.06c-0.085,0.694-0.168,1.365-0.247,2.009
					c-0.078,0.644-0.153,1.26-0.225,1.847c-0.035,0.293-0.07,0.579-0.103,0.857c-0.061,0.271-0.12,0.535-0.177,0.791
					c-0.228,1.022-0.427,1.912-0.591,2.646c-0.323,1.466-0.508,2.303-0.508,2.303s0.213-1.035,0.586-2.846
					c0.171-0.909,0.455-1.996,0.646-3.273c0.139-1.288,0.296-2.742,0.467-4.327c0.04-0.397,0.096-0.8,0.126-1.214
					c0.009-0.417,0.018-0.842,0.026-1.275c0.019-0.865,0.039-1.758,0.059-2.677c0.11-1.834-0.085-3.785-0.171-5.797
					c-0.224-4.027-0.868-8.317-1.673-12.579c-1.68-8.526-4.525-16.838-6.971-22.907c-1.238-3.031-2.359-5.52-3.188-7.222
					c-0.409-0.859-0.74-1.514-0.968-1.956c-0.157-0.303-0.894-1.647-1.301-2.389L165.9,117.617z"/>
				<path style="fill:#7D6E2E;" d="M207.461,93.492c4.367,2.218,10.368,4.838,16.581,6.793c0.776,0.245,1.544,0.516,2.323,0.74
					c0.783,0.208,1.563,0.415,2.336,0.62c1.547,0.41,3.062,0.845,4.563,1.11c1.493,0.297,2.931,0.612,4.302,0.862
					c1.38,0.19,2.685,0.369,3.889,0.535c0.602,0.083,1.179,0.163,1.727,0.239c0.55,0.057,1.075,0.078,1.567,0.115
					c0.984,0.066,1.842,0.125,2.548,0.172c1.412,0.097,2.219,0.152,2.219,0.152s-0.804-0.068-2.21-0.186
					c-0.703-0.059-1.557-0.13-2.536-0.212c-0.489-0.045-1.011-0.075-1.558-0.138c-0.545-0.084-1.118-0.173-1.717-0.265
					c-1.196-0.184-2.491-0.383-3.861-0.594c-1.361-0.266-2.786-0.605-4.265-0.923c-1.486-0.287-2.988-0.737-4.518-1.172
					c-0.765-0.216-1.536-0.434-2.311-0.653c-0.772-0.227-1.53-0.514-2.297-0.768c-6.139-2.036-12.055-4.717-16.347-6.986
					c-2.128-1.168-3.915-2.118-5.116-2.868c-1.215-0.726-1.909-1.141-1.909-1.141s0.703,0.399,1.934,1.097
					c1.217,0.722,3.025,1.632,5.174,2.749c4.336,2.168,10.295,4.706,16.445,6.592c0.768,0.235,1.527,0.504,2.299,0.712
					c0.774,0.2,1.545,0.399,2.31,0.596c1.529,0.397,3.028,0.81,4.509,1.06c1.474,0.281,2.893,0.586,4.246,0.818
					c1.361,0.177,2.647,0.345,3.835,0.5c0.593,0.078,1.161,0.153,1.702,0.224c0.542,0.05,1.059,0.068,1.543,0.101
					c0.968,0.059,1.813,0.11,2.508,0.152c1.389,0.086,2.183,0.135,2.183,0.135s-0.977-0.075-2.687-0.207
					c-0.855-0.065-1.893-0.143-3.084-0.233c-1.188-0.127-2.52-0.358-3.978-0.56c-5.821-0.863-13.506-2.766-20.86-5.675
					c-3.699-1.39-7.273-3.106-10.592-4.762c-3.283-1.729-6.304-3.432-8.794-5.04c-2.515-1.572-4.519-3.005-5.895-4.015
					c-0.685-0.51-1.36-1.027-1.703-1.304c-0.257-0.205-2.331-1.803-3.202-2.474l0.969,9.204c1.493,1.096,3.61,2.605,6.244,4.252
					c2.645,1.706,5.837,3.509,9.311,5.336c3.511,1.755,7.294,3.567,11.223,5.046c7.806,3.088,16.02,5.128,22.278,6.056
					c1.568,0.219,2.999,0.462,4.278,0.599c1.284,0.099,2.404,0.184,3.326,0.255c1.844,0.139,2.898,0.219,2.898,0.219
					s-0.851-0.077-2.34-0.211c-0.744-0.068-1.647-0.15-2.683-0.245c-0.517-0.05-1.068-0.102-1.648-0.158
					c-0.575-0.092-1.18-0.189-1.811-0.291c-1.261-0.204-2.626-0.424-4.071-0.658c-1.433-0.283-2.929-0.653-4.483-0.998
					c-1.562-0.318-3.137-0.788-4.737-1.26c-1.605-0.458-3.232-0.926-4.818-1.519c-6.41-2.174-12.556-4.992-16.999-7.388
					c-2.209-1.222-4.059-2.221-5.305-3.008c-1.257-0.765-1.976-1.201-1.976-1.201s0.728,0.421,2.002,1.157
					c1.262,0.758,3.134,1.715,5.365,2.885c4.488,2.293,10.679,4.964,17.1,6.982c1.589,0.554,3.217,0.983,4.82,1.402
					c1.599,0.433,3.171,0.865,4.728,1.145c1.549,0.308,3.038,0.643,4.464,0.891c1.435,0.199,2.791,0.387,4.043,0.561
					c0.626,0.086,1.226,0.169,1.796,0.248c0.575,0.042,1.12,0.082,1.633,0.12c1.025,0.07,1.919,0.132,2.655,0.183
					c1.471,0.1,2.312,0.158,2.312,0.158s-0.846-0.071-2.328-0.195c-0.74-0.062-1.639-0.138-2.67-0.225
					c-0.515-0.048-1.065-0.08-1.64-0.149c-0.573-0.088-1.175-0.181-1.804-0.277c-1.257-0.194-2.618-0.405-4.057-0.627
					c-1.427-0.284-2.922-0.635-4.472-0.971c-1.559-0.304-3.128-0.78-4.729-1.232c-0.8-0.227-1.607-0.456-2.417-0.686
					c-0.804-0.246-1.597-0.539-2.398-0.806c-6.41-2.134-12.558-4.941-17.021-7.299c-2.211-1.22-4.065-2.214-5.314-2.995
					c-1.263-0.756-1.985-1.188-1.985-1.188s0.729,0.421,2.004,1.156c1.261,0.761,3.131,1.725,5.358,2.907
					c4.496,2.284,10.675,4.986,17.094,7.008c0.802,0.254,1.595,0.533,2.4,0.765c0.81,0.216,1.616,0.43,2.416,0.644
					c1.6,0.424,3.167,0.873,4.723,1.15c1.547,0.309,3.037,0.634,4.458,0.894c1.433,0.198,2.787,0.385,4.038,0.558
					c0.625,0.086,1.224,0.169,1.793,0.247c0.572,0.059,1.118,0.082,1.629,0.122c1.023,0.07,1.915,0.131,2.65,0.181
					c1.469,0.1,2.308,0.156,2.308,0.156s-0.838-0.07-2.305-0.193c-0.733-0.062-1.624-0.137-2.645-0.223
					c-0.51-0.048-1.055-0.079-1.625-0.148c-0.568-0.088-1.165-0.18-1.788-0.275c-1.245-0.192-2.594-0.401-4.02-0.621
					c-1.415-0.281-2.896-0.63-4.433-0.963c-1.546-0.301-3.101-0.773-4.689-1.222c-0.794-0.225-1.594-0.452-2.397-0.68
					c-0.798-0.244-1.584-0.535-2.378-0.8c-6.359-2.117-12.462-4.904-16.893-7.245c-2.195-1.211-4.036-2.198-5.276-2.974
					c-1.254-0.751-1.971-1.18-1.971-1.18s0.724,0.417,1.99,1.148c1.252,0.755,3.109,1.712,5.32,2.885
					c4.464,2.268,10.599,4.949,16.965,6.954c0.795,0.252,1.582,0.529,2.38,0.758c0.803,0.214,1.603,0.427,2.396,0.638
					c1.587,0.421,3.141,0.866,4.683,1.14c1.533,0.306,3.01,0.629,4.419,0.885c1.42,0.196,2.762,0.381,4.001,0.552
					c0.619,0.085,1.212,0.167,1.777,0.245c0.566,0.059,1.107,0.081,1.614,0.12c1.013,0.069,1.897,0.129,2.624,0.179
					c1.454,0.099,2.286,0.155,2.286,0.155s-0.83-0.07-2.283-0.192c-0.726-0.061-1.608-0.136-2.619-0.221
					c-0.505-0.047-1.045-0.078-1.609-0.146c-0.563-0.087-1.154-0.178-1.771-0.273c-1.234-0.191-2.57-0.397-3.983-0.616
					c-1.402-0.279-2.87-0.625-4.394-0.955c-1.532-0.298-3.074-0.767-4.649-1.212c-0.787-0.223-1.58-0.448-2.377-0.674
					c-0.791-0.242-1.571-0.531-2.359-0.794c-6.308-2.1-12.366-4.867-16.765-7.192c-2.179-1.203-4.007-2.182-5.238-2.952
					c-1.245-0.745-1.956-1.171-1.956-1.171s0.718,0.414,1.975,1.139c1.243,0.75,3.086,1.699,5.281,2.865
					c4.432,2.251,10.522,4.912,16.838,6.901c0.789,0.25,1.57,0.524,2.361,0.753c0.796,0.212,1.589,0.423,2.376,0.632
					c1.574,0.417,3.114,0.859,4.642,1.13c1.52,0.303,2.984,0.623,4.38,0.878c1.406,0.194,2.736,0.377,3.963,0.546
					c0.613,0.085,1.201,0.166,1.76,0.243c0.561,0.058,1.097,0.08,1.598,0.118c1.003,0.068,1.878,0.128,2.599,0.176
					c1.44,0.098,2.263,0.154,2.263,0.154s-0.822-0.069-2.261-0.191c-0.719-0.061-1.592-0.134-2.594-0.219
					c-0.5-0.047-1.034-0.077-1.594-0.144c-0.557-0.086-1.143-0.177-1.754-0.271c-1.222-0.189-2.546-0.394-3.946-0.61
					c-1.389-0.277-2.845-0.62-4.355-0.947c-1.518-0.295-3.048-0.76-4.609-1.202c-0.78-0.221-1.567-0.444-2.357-0.668
					c-0.785-0.24-1.559-0.527-2.34-0.788c-6.257-2.084-12.27-4.83-16.637-7.138c-2.163-1.194-3.977-2.166-5.199-2.931
					c-1.236-0.74-1.942-1.163-1.942-1.163s0.713,0.411,1.961,1.131c1.233,0.744,3.064,1.686,5.243,2.843
					c4.4,2.234,10.445,4.875,16.71,6.847c0.782,0.248,1.557,0.52,2.342,0.746c0.79,0.21,1.576,0.419,2.356,0.626
					c1.561,0.413,3.088,0.852,4.603,1.12c1.506,0.3,2.957,0.617,4.341,0.87c1.393,0.192,2.711,0.373,3.927,0.54
					c0.608,0.084,1.19,0.164,1.744,0.241c0.556,0.057,1.086,0.079,1.583,0.117c0.994,0.067,1.86,0.126,2.574,0.174
					c1.426,0.097,2.241,0.153,2.241,0.153s-0.814-0.069-2.239-0.19c-0.712-0.06-1.577-0.133-2.568-0.217
					c-0.495-0.046-1.024-0.076-1.578-0.143c-0.552-0.085-1.132-0.175-1.738-0.269c-1.211-0.187-2.522-0.39-3.909-0.604
					c-1.377-0.275-2.819-0.616-4.316-0.939c-1.504-0.291-3.021-0.754-4.569-1.192c-0.774-0.219-1.554-0.44-2.336-0.662
					c-0.778-0.238-1.546-0.523-2.321-0.782c-6.205-2.067-12.174-4.792-16.509-7.084c-2.147-1.186-3.949-2.151-5.161-2.91
					c-1.227-0.734-1.928-1.154-1.928-1.154s0.708,0.408,1.946,1.122C203.481,91.408,205.298,92.343,207.461,93.492z"/>
			</g>
		</g>
		<g>
			<g>
				<path style="fill:#DFC974;" d="M384.765,137.756c-2.209-1.682-5.233-2.47-8.212-2.629c-4.699-0.25-9.587,1.055-12.845,3.87
					c-2.289,1.977-3.771,4.637-6.536,6.134c1.088-1.837,1.68-3.679,2.311-5.661c-4.52,4.378-10.048,8.235-12.834,13.528
					c-1.844,3.505-2.344,7.435-1.974,11.26c0.37,3.825,1.578,7.565,3.034,11.21c1.23,3.078,2.573,6.716,1.64,9.855
					c-0.235-0.806-0.742-1.556-1.447-2.143c-0.859-0.716-1.974-1.171-2.961-1.761c-0.987-0.59-2.09-1.165-2.216-2.169
					c-0.363,1.509-0.255,3.097,0.312,4.566c0.395,1.022,1.005,1.986,1.311,3.029c0.843,2.881-0.681,6.169,1.089,8.746
					c0.853,1.242,2.332,2.076,3.578,3.06c1.246,0.985,2.259,2.351,1.965,3.755c-1.775-0.614-3.404-1.349-4.828-2.428
					c0.072,5.169,4.855,9.335,7.725,13.932c4.624,7.407,3.76,17.242-1.267,23.825c4.305-3.9,6.496-9.283,7.088-11.743
					c2.073-8.617-1.492-12.598-2.938-19.205c-0.359-1.642-0.549-3.307-0.679-4.972c-0.138-1.776-0.204-3.647-0.218-5.569
					c-1.481-1.666-5.608-6.158-8.497-7.837c3.463,1.801,6.861,4.445,8.501,6.193c0.071-6.371,0.798-13.323,2.231-20.113
					c-4.47-7.355-6.246-17.572-3.692-24.689c-1.593,9.538,3.241,17.736,4.787,20.064c1.851-7.025,4.477-13.671,7.946-19.032
					c-1.126,2.794-5.271,14.415-7.657,28.207c2.501-2.536,7.253-6.169,12.059-8.669c-4.33,2.516-10.559,9.362-12.535,11.597
					c-0.686,4.562-1.147,9.301-1.229,13.995c2.184-2.769,7.276-7.404,13.191-10.48c-5.056,2.939-11.686,11.247-13.188,13.177
					c0.105,4.443,0.777,9.983,2.976,13.727c-0.383-3.389,2.017-6.544,4.731-9.072c2.714-2.528,5.898-4.806,7.687-7.855
					c1.151-1.964,1.662-4.187,1.464-6.373c-1.047,1.771-2.726,3.218-4.742,4.255c0.512-2.051,1.06-4.171,2.538-5.862
					c0.714-0.817,1.62-1.502,2.397-2.278c2.531-2.529,3.559-5.899,3.801-9.195c-2.465,3.89-9.746,4.439-11.672,8.537
					c0.37-3.239,1.839-6.38,4.193-8.966c0.971-1.067,2.091-2.044,2.924-3.188c0.667-0.916,1.137-1.92,1.604-2.919
					c1.221-2.613,2.453-5.259,2.855-8.047c-2.199,2.674-6.93,3.445-9.029,6.175c0.947-1.483,2.449-2.653,3.756-3.931
					c2.403-2.347,4.241-5.289,4.092-8.382c-0.104-2.147-1.151-4.196-1.408-6.335c-0.219-1.815,0.17-3.719,1.389-5.227
					s3.336-2.555,5.521-2.467c2.186,0.088,4.171,1.447,4.553,3.244C388.216,142.112,386.974,139.439,384.765,137.756z"/>
				<path style="fill:#AB9952;" d="M375.2,140.438c-4.799,2.549-8.061,10.395-8.061,10.395s-0.644,1.767-1.489,4.1
					c-1.758,5.168-4.428,14.051-6.168,24.107c2.501-2.536,7.253-6.169,12.059-8.669c-4.33,2.516-10.559,9.362-12.535,11.597
					c-0.686,4.562-1.147,9.301-1.229,13.995c2.184-2.769,7.276-7.404,13.191-10.48c-5.056,2.939-11.686,11.247-13.188,13.177
					c0.105,4.443,0.777,9.983,2.976,13.727c-0.383-3.389,2.017-6.544,4.731-9.072c2.714-2.528,5.898-4.806,7.687-7.855
					c1.151-1.964,1.662-4.187,1.464-6.373c-1.047,1.771-2.726,3.218-4.742,4.255c0.512-2.051,1.06-4.171,2.538-5.862
					c0.714-0.817,1.62-1.502,2.397-2.278c2.531-2.529,3.559-5.899,3.801-9.195c-2.465,3.89-9.746,4.439-11.672,8.537
					c0.37-3.239,1.839-6.38,4.193-8.966c0.971-1.067,2.091-2.044,2.924-3.188c0.667-0.916,1.137-1.92,1.604-2.919
					c1.221-2.613,2.452-5.259,2.855-8.047c-2.199,2.674-6.929,3.445-9.029,6.175c0.947-1.483,2.449-2.653,3.756-3.931
					c2.402-2.347,4.241-5.289,4.092-8.382c-0.104-2.147-1.151-4.196-1.408-6.335c-0.219-1.815,0.17-3.719,1.389-5.227
					c1.219-1.508,3.336-2.555,5.521-2.467c2.186,0.088,4.171,1.447,4.553,3.244C386.537,139.349,379.998,137.89,375.2,140.438z"/>
			</g>
			<g>
				<path style="fill:#DFC974;" d="M381.062,105.952c1.666-5.815,0.957-12.408-1.896-17.629c-2.853-5.221-7.432-9.135-12.864-10.213
					c2.276,1.975,3.908,4.839,4.536,7.961c0.627,3.119,0.086,6.792-2.201,8.744c-0.644-1.557-1.714-2.541-2.572-3.966
					c0.434,0.938,0.004,2.104-0.637,2.885c-0.64,0.781-1.478,1.348-2.083,2.162c-1.123,1.512-1.277,3.62-1.242,5.576
					c0.034,1.956,0.344,3.656-0.306,5.475c-2.238-2.097-5.536-2.659-8.442-2.219c2.382,2.502,3.459,6.251,3.467,9.883
					c0.004,2.151-0.342,4.327-1.198,6.259c-1.318,2.976-3.725,5.165-5.459,7.867c-2.933,4.574-3.787,10.695-2.236,16.033
					c0,0-1.159-9.334,9.263-18.105c1.138-0.958,2.253-2.005,3.345-3.105c0.618-4.187,0.377-10.48-1.601-14.944
					c2.792,4.759,2.921,11.302,2.869,13.618c2.277-2.452,4.4-5.164,6.249-8.03c0.89-4.678,1.005-12.098-0.826-17.414
					c2.435,5.226,2.409,12.123,2.265,15.056c4.005-6.945,6.314-14.5,5.346-20.99c1.909,8.41-1.509,18.161-6.243,25.438
					c-0.53,0.814-1.275,1.866-2.13,3.009c2.897-0.899,9.644-3.387,12.759-7.864c-3.283,6.036-11.708,8.905-14.113,9.619
					c-1.876,2.369-4.075,4.886-6.062,6.639c-1.784,1.575-3.434,3.258-4.775,5.4c1.77-1.174,3.445-1.594,4.381-1.805
					c2.293-0.517,4.657-0.459,6.982-0.743c4.839-0.592,9.517-2.71,13.342-6.039c-2.474,0.317-5.001,0.351-7.487,0.185
					c3.781-1.28,7.451-3.751,9.233-7.652c0.962-2.106,1.314-4.479,2.015-6.707c0.701-2.228,1.898-4.46,3.863-5.381
					C384.678,104.905,382.874,105.232,381.062,105.952z"/>
				<path style="fill:#AB9952;" d="M381.062,105.952c1.666-5.815,0.957-12.408-1.896-17.629c-2.853-5.221-7.432-9.135-12.864-10.213
					c7.046,4.589,8.536,12.748,8.536,12.748c1.909,8.41-1.509,18.161-6.243,25.438c-0.53,0.814-1.275,1.866-2.13,3.009
					c2.897-0.899,9.644-3.387,12.759-7.864c-3.283,6.036-11.708,8.905-14.113,9.619c-1.876,2.369-4.075,4.886-6.062,6.639
					c-1.784,1.575-3.434,3.258-4.775,5.4c1.77-1.174,3.445-1.594,4.381-1.805c2.293-0.517,4.657-0.459,6.982-0.743
					c4.839-0.592,9.517-2.71,13.342-6.039c-2.474,0.317-5.001,0.351-7.487,0.185c3.781-1.28,7.451-3.751,9.233-7.652
					c0.962-2.106,1.314-4.479,2.015-6.707c0.701-2.228,1.898-4.46,3.863-5.381C384.678,104.905,382.874,105.232,381.062,105.952z"/>
			</g>
		</g>
		<g>
			<g>
				<path style="fill:#DFC974;" d="M115.235,137.756c2.209-1.682,5.233-2.47,8.212-2.629c4.699-0.25,9.587,1.055,12.845,3.87
					c2.289,1.977,3.771,4.637,6.536,6.134c-1.088-1.837-1.68-3.679-2.311-5.661c4.52,4.378,10.048,8.235,12.834,13.528
					c1.844,3.505,2.344,7.435,1.974,11.26c-0.369,3.825-1.578,7.565-3.034,11.21c-1.23,3.078-2.573,6.716-1.64,9.855
					c0.235-0.806,0.742-1.556,1.447-2.143c0.859-0.716,1.974-1.171,2.961-1.761c0.987-0.59,2.09-1.165,2.216-2.169
					c0.363,1.509,0.255,3.097-0.312,4.566c-0.395,1.022-1.005,1.986-1.311,3.029c-0.843,2.881,0.681,6.169-1.089,8.746
					c-0.853,1.242-2.332,2.076-3.578,3.06c-1.246,0.985-2.259,2.351-1.965,3.755c1.775-0.614,3.405-1.349,4.828-2.428
					c-0.072,5.169-4.855,9.335-7.725,13.932c-4.624,7.407-3.76,17.242,1.267,23.825c-4.305-3.9-6.497-9.283-7.088-11.743
					c-2.073-8.617,1.492-12.598,2.938-19.205c0.359-1.642,0.549-3.307,0.679-4.972c0.138-1.776,0.204-3.647,0.218-5.569
					c1.481-1.666,5.608-6.158,8.497-7.837c-3.463,1.801-6.861,4.445-8.501,6.193c-0.071-6.371-0.798-13.323-2.231-20.113
					c4.47-7.355,6.246-17.572,3.692-24.689c1.593,9.538-3.241,17.736-4.787,20.064c-1.851-7.025-4.477-13.671-7.946-19.032
					c1.126,2.794,5.271,14.415,7.657,28.207c-2.501-2.536-7.253-6.169-12.059-8.669c4.329,2.516,10.559,9.362,12.535,11.597
					c0.686,4.562,1.147,9.301,1.229,13.995c-2.184-2.769-7.276-7.404-13.191-10.48c5.056,2.939,11.686,11.247,13.188,13.177
					c-0.105,4.443-0.777,9.983-2.976,13.727c0.383-3.389-2.017-6.544-4.731-9.072c-2.714-2.528-5.898-4.806-7.687-7.855
					c-1.152-1.964-1.662-4.187-1.464-6.373c1.047,1.771,2.726,3.218,4.742,4.255c-0.512-2.051-1.06-4.171-2.538-5.862
					c-0.714-0.817-1.62-1.502-2.397-2.278c-2.531-2.529-3.559-5.899-3.801-9.195c2.465,3.89,9.746,4.439,11.672,8.537
					c-0.37-3.239-1.839-6.38-4.193-8.966c-0.971-1.067-2.091-2.044-2.924-3.188c-0.667-0.916-1.137-1.92-1.604-2.919
					c-1.221-2.613-2.453-5.259-2.855-8.047c2.199,2.674,6.93,3.445,9.029,6.175c-0.947-1.483-2.449-2.653-3.756-3.931
					c-2.403-2.347-4.241-5.289-4.092-8.382c0.104-2.147,1.151-4.196,1.408-6.335c0.219-1.815-0.17-3.719-1.389-5.227
					c-1.219-1.508-3.336-2.555-5.521-2.467c-2.186,0.088-4.171,1.447-4.553,3.244C111.784,142.112,113.026,139.439,115.235,137.756z
					"/>
				<path style="fill:#AB9952;" d="M124.8,140.438c4.799,2.549,8.06,10.395,8.06,10.395s0.644,1.767,1.489,4.1
					c1.758,5.168,4.428,14.051,6.168,24.107c-2.501-2.536-7.253-6.169-12.059-8.669c4.329,2.516,10.559,9.362,12.535,11.597
					c0.686,4.562,1.147,9.301,1.229,13.995c-2.184-2.769-7.276-7.404-13.191-10.48c5.056,2.939,11.686,11.247,13.188,13.177
					c-0.105,4.443-0.777,9.983-2.976,13.727c0.383-3.389-2.017-6.544-4.731-9.072c-2.714-2.528-5.898-4.806-7.687-7.855
					c-1.152-1.964-1.662-4.187-1.464-6.373c1.047,1.771,2.726,3.218,4.742,4.255c-0.512-2.051-1.06-4.171-2.538-5.862
					c-0.714-0.817-1.62-1.502-2.397-2.278c-2.531-2.529-3.559-5.899-3.801-9.195c2.465,3.89,9.746,4.439,11.672,8.537
					c-0.37-3.239-1.839-6.38-4.193-8.966c-0.971-1.067-2.091-2.044-2.924-3.188c-0.667-0.916-1.137-1.92-1.604-2.919
					c-1.221-2.613-2.452-5.259-2.855-8.047c2.199,2.674,6.929,3.445,9.029,6.175c-0.947-1.483-2.449-2.653-3.756-3.931
					c-2.403-2.347-4.241-5.289-4.092-8.382c0.104-2.147,1.151-4.196,1.408-6.335c0.218-1.815-0.17-3.719-1.389-5.227
					c-1.219-1.508-3.336-2.555-5.521-2.467c-2.186,0.088-4.171,1.447-4.553,3.244C113.463,139.349,120.002,137.89,124.8,140.438z"/>
			</g>
			<g>
				<path style="fill:#DFC974;" d="M118.938,105.952c-1.666-5.815-0.957-12.408,1.896-17.629c2.853-5.221,7.432-9.135,12.864-10.213
					c-2.276,1.975-3.908,4.839-4.536,7.961c-0.627,3.119-0.086,6.792,2.201,8.744c0.644-1.557,1.714-2.541,2.572-3.966
					c-0.434,0.938-0.004,2.104,0.636,2.885c0.64,0.781,1.478,1.348,2.083,2.162c1.123,1.512,1.277,3.62,1.242,5.576
					c-0.034,1.956-0.344,3.656,0.306,5.475c2.238-2.097,5.536-2.659,8.442-2.219c-2.382,2.502-3.459,6.251-3.467,9.883
					c-0.004,2.151,0.342,4.327,1.198,6.259c1.318,2.976,3.726,5.165,5.459,7.867c2.933,4.574,3.787,10.695,2.236,16.033
					c0,0,1.159-9.334-9.263-18.105c-1.138-0.958-2.253-2.005-3.345-3.105c-0.618-4.187-0.377-10.48,1.601-14.944
					c-2.792,4.759-2.921,11.302-2.869,13.618c-2.277-2.452-4.4-5.164-6.249-8.03c-0.89-4.678-1.005-12.098,0.826-17.414
					c-2.435,5.226-2.409,12.123-2.265,15.056c-4.005-6.945-6.314-14.5-5.346-20.99c-1.909,8.41,1.509,18.161,6.243,25.438
					c0.53,0.814,1.275,1.866,2.13,3.009c-2.897-0.899-9.644-3.387-12.759-7.864c3.283,6.036,11.708,8.905,14.113,9.619
					c1.876,2.369,4.075,4.886,6.062,6.639c1.785,1.575,3.434,3.258,4.775,5.4c-1.77-1.174-3.445-1.594-4.381-1.805
					c-2.292-0.517-4.657-0.459-6.982-0.743c-4.839-0.592-9.517-2.71-13.342-6.039c2.475,0.317,5.001,0.351,7.488,0.185
					c-3.781-1.28-7.451-3.751-9.234-7.652c-0.962-2.106-1.314-4.479-2.015-6.707c-0.701-2.228-1.898-4.46-3.863-5.381
					C115.322,104.905,117.126,105.232,118.938,105.952z"/>
				<path style="fill:#AB9952;" d="M118.938,105.952c-1.666-5.815-0.957-12.408,1.896-17.629c2.853-5.221,7.432-9.135,12.864-10.213
					c-7.046,4.589-8.536,12.748-8.536,12.748c-1.909,8.41,1.509,18.161,6.243,25.438c0.53,0.814,1.275,1.866,2.13,3.009
					c-2.897-0.899-9.644-3.387-12.759-7.864c3.283,6.036,11.708,8.905,14.113,9.619c1.876,2.369,4.075,4.886,6.062,6.639
					c1.785,1.575,3.434,3.258,4.775,5.4c-1.77-1.174-3.445-1.594-4.381-1.805c-2.292-0.517-4.657-0.459-6.982-0.743
					c-4.839-0.592-9.517-2.71-13.342-6.039c2.475,0.317,5.001,0.351,7.488,0.185c-3.781-1.28-7.451-3.751-9.234-7.652
					c-0.962-2.106-1.314-4.479-2.015-6.707c-0.701-2.228-1.898-4.46-3.863-5.381C115.322,104.905,117.126,105.232,118.938,105.952z"
					/>
			</g>
		</g>
		<g>
			<path style="fill:#DFC974;" d="M143.494,346.056c-7.32-3.692-13.588-10.228-16.759-17.479c-3.172-7.251-3.64-14.896-0.507-20.775
				c0.263,3.826,1.95,7.864,4.691,11.224c2.737,3.356,6.96,6.151,10.77,5.826c-1.108-1.975-1.289-3.823-2.092-5.874
				c0.631,1.232,2.174,1.885,3.484,2.004c1.309,0.119,2.55-0.133,3.866,0.048c2.443,0.335,4.744,2.081,6.741,3.861
				c1.997,1.779,3.514,3.581,5.905,4.619c-0.419-3.9,1.578-7.389,4.307-9.626c0.725,4.393,3.763,8.721,7.516,11.975
				c2.223,1.928,4.745,3.56,7.414,4.512c4.11,1.467,8.258,1.246,12.411,2.093c7.027,1.435,14.029,6.135,18.339,12.312
				c0,0-8.751-9.395-25.98-7.804c-1.881,0.174-3.837,0.247-5.829,0.252c-4.816-3.184-11.139-9.03-14.212-14.811
				c2.741,6.782,9.411,12.75,11.847,14.773c-4.318-0.131-8.785-0.635-13.197-1.524c-5.537-3.377-13.305-9.908-17.374-16.318
				c3.504,6.877,10.66,13.02,13.808,15.512c-10.319-2.584-19.942-7.25-25.901-13.929c7.21,9.248,19.973,14.872,31.206,17.094
				c1.257,0.248,2.928,0.515,4.78,0.763c-3.197,1.819-11.048,5.701-18.117,4.518c8.814,2.426,18.372-2.635,20.992-4.174
				c3.919,0.42,8.244,0.68,11.611,0.449c3.025-0.207,6.058-0.195,9.322,0.506c-2.598,0.553-4.344,1.693-5.294,2.351
				c-2.329,1.612-4.117,3.805-6.23,5.655c-4.397,3.85-10.248,6.191-16.684,6.676c2.264-1.956,4.275-4.212,6.048-6.612
				c-4.281,2.278-9.708,3.391-15.14,1.516c-2.931-1.012-5.662-2.816-8.516-4.173c-2.854-1.357-6.099-2.27-8.589-1.315
				C139.582,348.393,141.332,347.052,143.494,346.056z"/>
			<path style="fill:#AB9952;" d="M143.494,346.056c-7.32-3.692-13.588-10.228-16.759-17.479c-3.172-7.251-3.64-14.896-0.507-20.775
				c-0.763,10.481,6.515,19.125,6.515,19.125c7.21,9.248,19.973,14.872,31.206,17.094c1.257,0.248,2.928,0.515,4.78,0.763
				c-3.197,1.819-11.048,5.701-18.117,4.518c8.814,2.426,18.372-2.635,20.992-4.174c3.919,0.42,8.244,0.68,11.611,0.449
				c3.025-0.207,6.058-0.195,9.322,0.506c-2.598,0.553-4.344,1.693-5.294,2.351c-2.329,1.612-4.117,3.805-6.23,5.655
				c-4.397,3.85-10.248,6.191-16.684,6.676c2.264-1.956,4.275-4.212,6.048-6.612c-4.281,2.278-9.708,3.391-15.14,1.516
				c-2.931-1.012-5.662-2.816-8.516-4.173c-2.854-1.357-6.099-2.27-8.589-1.315C139.582,348.393,141.332,347.052,143.494,346.056z"
				/>
		</g>
		<g>
			<path style="fill:#DFC974;" d="M356.506,346.056c7.32-3.692,13.587-10.228,16.759-17.479c3.172-7.251,3.64-14.896,0.507-20.775
				c-0.263,3.826-1.95,7.864-4.691,11.224c-2.737,3.356-6.96,6.151-10.77,5.826c1.108-1.975,1.289-3.823,2.092-5.874
				c-0.631,1.232-2.174,1.885-3.484,2.004c-1.309,0.119-2.55-0.133-3.866,0.048c-2.443,0.335-4.744,2.081-6.741,3.861
				c-1.997,1.779-3.514,3.581-5.905,4.619c0.419-3.9-1.578-7.389-4.307-9.626c-0.725,4.393-3.763,8.721-7.516,11.975
				c-2.223,1.928-4.745,3.56-7.414,4.512c-4.11,1.467-8.258,1.246-12.411,2.093c-7.027,1.435-14.029,6.135-18.339,12.312
				c0,0,8.751-9.395,25.98-7.804c1.881,0.174,3.837,0.247,5.828,0.252c4.816-3.184,11.139-9.03,14.212-14.811
				c-2.741,6.782-9.411,12.75-11.847,14.773c4.318-0.131,8.785-0.635,13.197-1.524c5.537-3.377,13.305-9.908,17.374-16.318
				c-3.504,6.877-10.66,13.02-13.808,15.512c10.319-2.584,19.942-7.25,25.901-13.929c-7.21,9.248-19.973,14.872-31.206,17.094
				c-1.257,0.248-2.928,0.515-4.78,0.763c3.197,1.819,11.048,5.701,18.117,4.518c-8.814,2.426-18.372-2.635-20.992-4.174
				c-3.919,0.42-8.244,0.68-11.611,0.449c-3.025-0.207-6.058-0.195-9.322,0.506c2.598,0.553,4.344,1.693,5.294,2.351
				c2.329,1.612,4.117,3.805,6.23,5.655c4.397,3.85,10.248,6.191,16.685,6.676c-2.264-1.956-4.275-4.212-6.048-6.612
				c4.281,2.278,9.708,3.391,15.14,1.516c2.931-1.012,5.662-2.816,8.516-4.173c2.854-1.357,6.1-2.27,8.589-1.315
				C360.418,348.393,358.668,347.052,356.506,346.056z"/>
			<path style="fill:#AB9952;" d="M356.506,346.056c7.32-3.692,13.587-10.228,16.759-17.479c3.172-7.251,3.64-14.896,0.507-20.775
				c0.763,10.481-6.515,19.125-6.515,19.125c-7.21,9.248-19.973,14.872-31.206,17.094c-1.257,0.248-2.928,0.515-4.78,0.763
				c3.197,1.819,11.048,5.701,18.117,4.518c-8.814,2.426-18.372-2.635-20.992-4.174c-3.919,0.42-8.244,0.68-11.611,0.449
				c-3.025-0.207-6.058-0.195-9.322,0.506c2.598,0.553,4.344,1.693,5.294,2.351c2.329,1.612,4.117,3.805,6.23,5.655
				c4.397,3.85,10.248,6.191,16.685,6.676c-2.264-1.956-4.275-4.212-6.048-6.612c4.281,2.278,9.708,3.391,15.14,1.516
				c2.931-1.012,5.662-2.816,8.516-4.173c2.854-1.357,6.1-2.27,8.589-1.315C360.418,348.393,358.668,347.052,356.506,346.056z"/>
		</g>
		<g>
			<polygon style="fill:#DFC974;" points="250,54.049 255.895,67.471 270.481,68.929 259.538,78.683 262.658,93.006 250,85.613 
				237.342,93.006 240.462,78.683 229.519,68.929 244.105,67.471 			"/>
			<polygon style="fill:#7D6E2E;" points="250,75.537 270.481,68.929 259.538,78.683 			"/>
			<polygon style="fill:#7D6E2E;" points="250,75.537 262.658,93.006 250,85.613 			"/>
			<polygon style="fill:#AB9952;" points="255.895,67.471 250,75.537 250,54.049 			"/>
			<polygon style="fill:#AB9952;" points="250,75.537 229.519,68.929 240.462,78.683 			"/>
			<polygon style="fill:#AB9952;" points="250,75.537 237.342,93.006 250,85.613 			"/>
			<polygon style="fill:#AB9952;" points="250,75.537 259.538,78.683 262.658,93.006 			"/>
		</g>
		<g>
			<polygon style="fill:#DFC974;" points="210.007,52.614 214.005,61.716 223.896,62.706 216.475,69.32 218.591,79.034 
				210.007,74.02 201.423,79.034 203.539,69.32 196.118,62.706 206.01,61.716 			"/>
			<polygon style="fill:#7D6E2E;" points="210.007,67.187 223.896,62.706 216.475,69.32 			"/>
			<polygon style="fill:#7D6E2E;" points="210.007,67.187 218.591,79.034 210.007,74.02 			"/>
			<polygon style="fill:#AB9952;" points="214.005,61.716 210.007,67.187 210.007,52.614 			"/>
			<polygon style="fill:#AB9952;" points="210.007,67.187 196.118,62.706 203.539,69.32 			"/>
			<polygon style="fill:#AB9952;" points="210.007,67.187 201.423,79.034 210.007,74.02 			"/>
			<polygon style="fill:#AB9952;" points="210.007,67.187 216.475,69.32 218.591,79.034 			"/>
		</g>
		<g>
			<polygon style="fill:#DFC974;" points="289.993,52.614 293.99,61.716 303.882,62.706 296.461,69.32 298.577,79.034 
				289.993,74.02 281.409,79.034 283.525,69.32 276.103,62.706 285.995,61.716 			"/>
			<polygon style="fill:#7D6E2E;" points="289.993,67.187 303.882,62.706 296.461,69.32 			"/>
			<polygon style="fill:#7D6E2E;" points="289.993,67.187 298.577,79.034 289.993,74.02 			"/>
			<polygon style="fill:#AB9952;" points="293.99,61.716 289.993,67.187 289.993,52.614 			"/>
			<polygon style="fill:#AB9952;" points="289.993,67.187 276.103,62.706 283.525,69.32 			"/>
			<polygon style="fill:#AB9952;" points="289.993,67.187 281.409,79.034 289.993,74.02 			"/>
			<polygon style="fill:#AB9952;" points="289.993,67.187 296.461,69.32 298.577,79.034 			"/>
		</g>
	</g>
</g>
<g id="DESIGNED_BY_FREEPIK">
	<g>
		<g>
			<g>
				<path style="fill:#AB9952;" d="M180.308,483.929v-0.161c-0.218,0.249-0.432,0.452-0.644,0.608
					c-0.212,0.157-0.441,0.276-0.689,0.356c-0.247,0.082-0.517,0.122-0.81,0.122c-0.388,0-0.747-0.082-1.078-0.246
					c-0.33-0.164-0.616-0.399-0.857-0.704c-0.242-0.305-0.425-0.662-0.549-1.074c-0.125-0.412-0.187-0.857-0.187-1.335
					c0-1.013,0.248-1.804,0.742-2.369c0.495-0.565,1.146-0.848,1.953-0.848c0.467,0,0.861,0.081,1.181,0.24
					c0.321,0.161,0.633,0.408,0.938,0.739v-2.392c0-0.333,0.066-0.583,0.199-0.754c0.132-0.17,0.321-0.255,0.567-0.255
					c0.245,0,0.434,0.078,0.567,0.234c0.133,0.157,0.199,0.386,0.199,0.691v7.147c0,0.309-0.071,0.54-0.214,0.695
					c-0.143,0.154-0.326,0.231-0.552,0.231c-0.221,0-0.405-0.08-0.549-0.24C180.38,484.454,180.308,484.226,180.308,483.929z
					 M177.12,481.549c0,0.44,0.068,0.813,0.205,1.122c0.137,0.309,0.324,0.541,0.561,0.697c0.238,0.157,0.497,0.236,0.778,0.236
					c0.285,0,0.545-0.074,0.781-0.223c0.235-0.148,0.423-0.376,0.564-0.682c0.141-0.307,0.21-0.691,0.21-1.149
					c0-0.432-0.07-0.803-0.21-1.114c-0.14-0.31-0.33-0.548-0.57-0.712c-0.24-0.163-0.502-0.245-0.786-0.245
					c-0.297,0-0.562,0.084-0.796,0.252c-0.233,0.168-0.414,0.409-0.543,0.724C177.184,480.768,177.12,481.133,177.12,481.549z"/>
				<path style="fill:#AB9952;" d="M187.454,481.959h-3.169c0.004,0.367,0.078,0.692,0.223,0.973
					c0.144,0.281,0.336,0.493,0.576,0.635c0.24,0.143,0.504,0.213,0.793,0.213c0.194,0,0.371-0.022,0.531-0.067
					c0.161-0.046,0.316-0.117,0.466-0.214c0.15-0.096,0.289-0.201,0.415-0.312c0.126-0.111,0.29-0.262,0.493-0.452
					c0.083-0.071,0.202-0.107,0.357-0.107c0.166,0,0.3,0.046,0.403,0.137c0.103,0.092,0.155,0.219,0.155,0.386
					c0,0.146-0.058,0.317-0.172,0.513c-0.116,0.196-0.289,0.384-0.52,0.564c-0.232,0.18-0.522,0.329-0.873,0.448
					c-0.35,0.119-0.753,0.178-1.208,0.178c-1.04,0-1.85-0.297-2.428-0.891c-0.578-0.593-0.866-1.399-0.866-2.416
					c0-0.479,0.071-0.923,0.213-1.332c0.143-0.41,0.351-0.761,0.623-1.054c0.273-0.293,0.609-0.517,1.009-0.674
					c0.4-0.156,0.843-0.234,1.33-0.234c0.633,0,1.176,0.133,1.629,0.4c0.454,0.267,0.794,0.612,1.019,1.035
					c0.225,0.424,0.339,0.856,0.339,1.294c0,0.408-0.117,0.672-0.35,0.794C188.206,481.898,187.878,481.959,187.454,481.959z
					 M184.284,481.039h2.938c-0.039-0.554-0.189-0.969-0.448-1.244c-0.259-0.275-0.6-0.412-1.024-0.412
					c-0.404,0-0.735,0.139-0.994,0.418C184.497,480.079,184.34,480.492,184.284,481.039z"/>
				<path style="fill:#AB9952;" d="M194.838,482.735c0,0.447-0.108,0.831-0.327,1.149c-0.217,0.319-0.539,0.56-0.965,0.724
					c-0.425,0.164-0.943,0.246-1.552,0.246c-0.582,0-1.08-0.089-1.496-0.267c-0.415-0.178-0.722-0.401-0.92-0.667
					c-0.198-0.268-0.297-0.535-0.297-0.805c0-0.178,0.063-0.33,0.19-0.457c0.126-0.126,0.287-0.19,0.481-0.19
					c0.17,0,0.3,0.042,0.391,0.124c0.091,0.083,0.179,0.2,0.261,0.35c0.166,0.29,0.366,0.504,0.597,0.648
					c0.231,0.142,0.547,0.214,0.947,0.214c0.324,0,0.59-0.073,0.798-0.217c0.208-0.145,0.311-0.31,0.311-0.496
					c0-0.285-0.107-0.492-0.324-0.622c-0.216-0.131-0.571-0.256-1.066-0.375c-0.558-0.138-1.012-0.284-1.362-0.436
					c-0.35-0.151-0.63-0.353-0.84-0.602c-0.21-0.25-0.315-0.557-0.315-0.92c0-0.324,0.097-0.631,0.291-0.92
					c0.194-0.288,0.48-0.519,0.858-0.691c0.377-0.173,0.833-0.259,1.368-0.259c0.419,0,0.797,0.043,1.131,0.131
					c0.335,0.086,0.614,0.204,0.837,0.35c0.224,0.146,0.394,0.308,0.51,0.486c0.117,0.178,0.175,0.352,0.175,0.523
					c0,0.186-0.062,0.338-0.187,0.457c-0.124,0.118-0.301,0.178-0.532,0.178c-0.166,0-0.308-0.048-0.424-0.143
					c-0.117-0.095-0.25-0.237-0.401-0.427c-0.123-0.158-0.266-0.285-0.433-0.38c-0.166-0.095-0.392-0.142-0.677-0.142
					c-0.293,0-0.536,0.062-0.73,0.187c-0.194,0.124-0.291,0.279-0.291,0.465c0,0.171,0.071,0.31,0.213,0.419
					c0.143,0.109,0.334,0.2,0.576,0.27c0.241,0.071,0.573,0.158,0.997,0.261c0.502,0.123,0.913,0.27,1.232,0.439
					c0.318,0.17,0.56,0.371,0.725,0.603C194.756,482.175,194.838,482.439,194.838,482.735z"/>
				<path style="fill:#AB9952;" d="M196.494,477.513c-0.226,0-0.418-0.07-0.579-0.208c-0.16-0.138-0.24-0.334-0.24-0.588
					c0-0.23,0.082-0.418,0.246-0.567c0.164-0.149,0.356-0.223,0.573-0.223c0.21,0,0.396,0.067,0.558,0.202
					c0.162,0.135,0.244,0.33,0.244,0.588c0,0.25-0.08,0.444-0.238,0.585C196.899,477.442,196.711,477.513,196.494,477.513z
					 M197.295,479.186v4.683c0,0.325-0.077,0.571-0.232,0.737c-0.155,0.166-0.35,0.249-0.588,0.249
					c-0.238,0-0.431-0.085-0.579-0.255c-0.149-0.17-0.222-0.414-0.222-0.731v-4.636c0-0.32,0.074-0.561,0.222-0.724
					c0.148-0.162,0.341-0.243,0.579-0.243c0.238,0,0.433,0.081,0.588,0.243C197.218,478.672,197.295,478.897,197.295,479.186z"/>
				<path style="fill:#AB9952;" d="M204.395,479.453v4.707c0,0.538-0.058,1.002-0.173,1.39c-0.114,0.387-0.298,0.708-0.552,0.961
					c-0.253,0.253-0.585,0.441-0.994,0.563c-0.41,0.123-0.919,0.184-1.529,0.184c-0.558,0-1.057-0.078-1.496-0.234
					c-0.439-0.157-0.777-0.358-1.015-0.605c-0.237-0.247-0.356-0.502-0.356-0.763c0-0.198,0.067-0.359,0.202-0.483
					c0.134-0.125,0.297-0.187,0.486-0.187c0.238,0,0.445,0.105,0.624,0.314c0.087,0.107,0.177,0.216,0.27,0.324
					c0.093,0.109,0.197,0.202,0.309,0.279c0.113,0.076,0.248,0.134,0.406,0.172c0.158,0.037,0.341,0.056,0.546,0.056
					c0.42,0,0.745-0.058,0.977-0.175c0.232-0.116,0.394-0.28,0.487-0.49c0.093-0.209,0.147-0.433,0.163-0.673
					c0.016-0.24,0.027-0.624,0.035-1.155c-0.25,0.349-0.537,0.615-0.864,0.797c-0.326,0.182-0.715,0.273-1.166,0.273
					c-0.542,0-1.016-0.139-1.422-0.416c-0.405-0.277-0.717-0.665-0.934-1.163c-0.218-0.499-0.326-1.074-0.326-1.727
					c0-0.487,0.066-0.927,0.198-1.318c0.133-0.393,0.322-0.723,0.567-0.992c0.245-0.269,0.528-0.472,0.849-0.609
					c0.32-0.136,0.673-0.204,1.057-0.204c0.459,0,0.857,0.089,1.193,0.264c0.336,0.177,0.649,0.453,0.938,0.829v-0.22
					c0-0.281,0.069-0.498,0.208-0.653c0.139-0.154,0.317-0.231,0.535-0.231c0.313,0,0.52,0.103,0.623,0.306
					C204.343,478.775,204.395,479.07,204.395,479.453z M199.699,481.507c0,0.657,0.143,1.154,0.43,1.49
					c0.287,0.337,0.658,0.505,1.113,0.505c0.269,0,0.523-0.073,0.762-0.217c0.24-0.145,0.435-0.363,0.585-0.653
					c0.15-0.291,0.226-0.644,0.226-1.06c0-0.66-0.145-1.176-0.436-1.543c-0.291-0.368-0.674-0.552-1.149-0.552
					c-0.463,0-0.834,0.176-1.113,0.529C199.838,480.357,199.699,480.858,199.699,481.507z"/>
				<path style="fill:#AB9952;" d="M206.97,479.162v0.196c0.285-0.376,0.596-0.652,0.935-0.828c0.338-0.176,0.727-0.264,1.166-0.264
					c0.427,0,0.809,0.093,1.146,0.28c0.336,0.186,0.588,0.449,0.754,0.789c0.107,0.198,0.176,0.413,0.208,0.642
					c0.032,0.23,0.048,0.522,0.048,0.879v3.015c0,0.325-0.074,0.571-0.223,0.737c-0.148,0.166-0.341,0.249-0.579,0.249
					c-0.242,0-0.437-0.085-0.588-0.255c-0.151-0.17-0.225-0.414-0.225-0.731v-2.701c0-0.534-0.075-0.943-0.223-1.226
					c-0.149-0.283-0.444-0.425-0.888-0.425c-0.288,0-0.552,0.086-0.789,0.258c-0.237,0.173-0.412,0.41-0.522,0.71
					c-0.079,0.242-0.119,0.692-0.119,1.353v2.03c0,0.328-0.077,0.576-0.228,0.74c-0.152,0.164-0.349,0.246-0.59,0.246
					c-0.234,0-0.426-0.085-0.576-0.255c-0.15-0.17-0.226-0.414-0.226-0.731v-4.683c0-0.309,0.067-0.539,0.202-0.692
					c0.135-0.152,0.319-0.228,0.552-0.228c0.143,0,0.272,0.034,0.387,0.101c0.114,0.068,0.207,0.168,0.276,0.302
					C206.935,478.804,206.97,478.969,206.97,479.162z"/>
				<path style="fill:#AB9952;" d="M216.829,481.959h-3.17c0.004,0.367,0.078,0.692,0.223,0.973
					c0.144,0.281,0.336,0.493,0.576,0.635c0.239,0.143,0.503,0.213,0.792,0.213c0.194,0,0.371-0.022,0.532-0.067
					c0.16-0.046,0.315-0.117,0.466-0.214c0.15-0.096,0.288-0.201,0.416-0.312c0.126-0.111,0.29-0.262,0.492-0.452
					c0.083-0.071,0.202-0.107,0.356-0.107c0.166,0,0.301,0.046,0.404,0.137c0.103,0.092,0.154,0.219,0.154,0.386
					c0,0.146-0.057,0.317-0.172,0.513c-0.115,0.196-0.288,0.384-0.52,0.564c-0.232,0.18-0.522,0.329-0.872,0.448
					c-0.35,0.119-0.753,0.178-1.208,0.178c-1.041,0-1.85-0.297-2.428-0.891c-0.577-0.593-0.866-1.399-0.866-2.416
					c0-0.479,0.071-0.923,0.214-1.332c0.143-0.41,0.351-0.761,0.624-1.054c0.273-0.293,0.609-0.517,1.009-0.674
					c0.4-0.156,0.843-0.234,1.33-0.234c0.633,0,1.176,0.133,1.629,0.4c0.453,0.267,0.793,0.612,1.019,1.035
					c0.225,0.424,0.338,0.856,0.338,1.294c0,0.408-0.117,0.672-0.35,0.794C217.581,481.898,217.253,481.959,216.829,481.959z
					 M213.659,481.039h2.938c-0.039-0.554-0.189-0.969-0.448-1.244c-0.259-0.275-0.6-0.412-1.024-0.412
					c-0.404,0-0.736,0.139-0.995,0.418C213.872,480.079,213.715,480.492,213.659,481.039z"/>
				<path style="fill:#AB9952;" d="M223.435,483.929v-0.161c-0.218,0.249-0.432,0.452-0.644,0.608
					c-0.212,0.157-0.441,0.276-0.688,0.356c-0.247,0.082-0.517,0.122-0.81,0.122c-0.388,0-0.747-0.082-1.077-0.246
					c-0.33-0.164-0.617-0.399-0.858-0.704c-0.242-0.305-0.424-0.662-0.549-1.074c-0.125-0.412-0.187-0.857-0.187-1.335
					c0-1.013,0.247-1.804,0.742-2.369c0.495-0.565,1.146-0.848,1.953-0.848c0.467,0,0.861,0.081,1.181,0.24
					c0.32,0.161,0.633,0.408,0.938,0.739v-2.392c0-0.333,0.066-0.583,0.199-0.754c0.132-0.17,0.322-0.255,0.567-0.255
					c0.245,0,0.434,0.078,0.567,0.234c0.133,0.157,0.199,0.386,0.199,0.691v7.147c0,0.309-0.071,0.54-0.214,0.695
					c-0.143,0.154-0.326,0.231-0.552,0.231c-0.222,0-0.405-0.08-0.549-0.24C223.507,484.454,223.435,484.226,223.435,483.929z
					 M220.248,481.549c0,0.44,0.068,0.813,0.204,1.122c0.136,0.309,0.324,0.541,0.561,0.697c0.237,0.157,0.496,0.236,0.777,0.236
					c0.285,0,0.546-0.074,0.781-0.223c0.236-0.148,0.424-0.376,0.564-0.682c0.141-0.307,0.211-0.691,0.211-1.149
					c0-0.432-0.07-0.803-0.211-1.114c-0.14-0.31-0.33-0.548-0.57-0.712c-0.24-0.163-0.502-0.245-0.787-0.245
					c-0.296,0-0.562,0.084-0.795,0.252c-0.233,0.168-0.414,0.409-0.543,0.724C220.312,480.768,220.248,481.133,220.248,481.549z"/>
				<path style="fill:#AB9952;" d="M230.059,476.782v2.475c0.305-0.316,0.615-0.559,0.932-0.727
					c0.316-0.168,0.709-0.252,1.176-0.252c0.538,0,1.01,0.128,1.416,0.382c0.405,0.256,0.72,0.626,0.944,1.111
					c0.223,0.484,0.336,1.06,0.336,1.725c0,0.491-0.063,0.94-0.187,1.35c-0.125,0.41-0.306,0.765-0.543,1.065
					c-0.238,0.301-0.525,0.534-0.864,0.698c-0.339,0.164-0.712,0.246-1.119,0.246c-0.25,0-0.484-0.029-0.703-0.089
					c-0.22-0.059-0.407-0.137-0.561-0.234c-0.154-0.096-0.286-0.196-0.395-0.3c-0.109-0.103-0.253-0.258-0.431-0.463v0.161
					c0,0.305-0.073,0.535-0.22,0.692c-0.146,0.156-0.332,0.234-0.558,0.234c-0.23,0-0.413-0.078-0.549-0.234
					c-0.137-0.157-0.205-0.388-0.205-0.692v-7.077c0-0.328,0.066-0.577,0.198-0.745c0.133-0.168,0.318-0.252,0.555-0.252
					c0.25,0,0.441,0.08,0.576,0.24C229.992,476.257,230.059,476.485,230.059,476.782z M230.136,481.596
					c0,0.645,0.148,1.14,0.442,1.486c0.295,0.347,0.682,0.521,1.161,0.521c0.407,0,0.759-0.177,1.053-0.532
					c0.295-0.355,0.442-0.862,0.442-1.523c0-0.427-0.061-0.796-0.184-1.104c-0.123-0.309-0.297-0.548-0.522-0.715
					c-0.226-0.168-0.489-0.252-0.79-0.252c-0.309,0-0.584,0.084-0.825,0.252c-0.242,0.168-0.431,0.411-0.57,0.73
					C230.205,480.777,230.136,481.157,230.136,481.596z"/>
				<path style="fill:#AB9952;" d="M236.963,485.057l0.148-0.362l-1.995-5.022c-0.122-0.288-0.184-0.499-0.184-0.629
					c0-0.139,0.036-0.267,0.107-0.385c0.071-0.119,0.169-0.214,0.294-0.285c0.125-0.072,0.255-0.107,0.389-0.107
					c0.233,0,0.409,0.075,0.529,0.223c0.119,0.148,0.223,0.361,0.314,0.638l1.371,3.989l1.3-3.71c0.102-0.3,0.196-0.536,0.279-0.706
					c0.083-0.17,0.171-0.285,0.264-0.344c0.093-0.06,0.225-0.09,0.395-0.09c0.123,0,0.24,0.032,0.353,0.098
					c0.113,0.065,0.199,0.153,0.261,0.264c0.061,0.111,0.092,0.227,0.092,0.35c-0.016,0.075-0.041,0.182-0.077,0.321
					c-0.036,0.138-0.079,0.28-0.13,0.421l-2.113,5.533c-0.182,0.487-0.36,0.868-0.535,1.145c-0.174,0.277-0.404,0.491-0.691,0.638
					c-0.287,0.149-0.674,0.223-1.161,0.223c-0.475,0-0.831-0.051-1.068-0.154c-0.238-0.104-0.356-0.292-0.356-0.565
					c0-0.186,0.056-0.33,0.169-0.43c0.112-0.101,0.28-0.152,0.501-0.152c0.087,0,0.173,0.012,0.256,0.037
					c0.103,0.023,0.192,0.035,0.267,0.035c0.186,0,0.333-0.027,0.44-0.084c0.106-0.055,0.202-0.151,0.288-0.288
					C236.754,485.523,236.852,485.322,236.963,485.057z"/>
			</g>
			<g>
				<path style="fill:#AB9952;" d="M260.439,478.406h0.386v-0.487c0-0.509,0.062-0.911,0.192-1.211
					c0.128-0.299,0.347-0.516,0.654-0.653c0.306-0.135,0.727-0.204,1.26-0.204c0.95,0,1.42,0.229,1.42,0.696
					c0,0.149-0.049,0.278-0.15,0.385c-0.096,0.106-0.214,0.16-0.349,0.16c-0.062,0-0.174-0.012-0.33-0.037
					c-0.148-0.021-0.283-0.035-0.389-0.035c-0.292,0-0.479,0.088-0.566,0.259c-0.079,0.172-0.122,0.418-0.122,0.74v0.386h0.396
					c0.619,0,0.926,0.186,0.926,0.56c0,0.262-0.079,0.432-0.245,0.503c-0.164,0.071-0.39,0.107-0.68,0.107h-0.396v4.294
					c0,0.319-0.075,0.563-0.231,0.73c-0.151,0.17-0.346,0.254-0.589,0.254c-0.23,0-0.419-0.084-0.574-0.254
					c-0.153-0.167-0.228-0.411-0.228-0.73v-4.294h-0.446c-0.243,0-0.427-0.052-0.559-0.164c-0.131-0.107-0.197-0.25-0.197-0.423
					C259.625,478.598,259.896,478.406,260.439,478.406"/>
				<path style="fill:#AB9952;" d="M265.745,482.515v1.355c0,0.327-0.083,0.574-0.234,0.737c-0.154,0.166-0.349,0.247-0.586,0.247
					c-0.239,0-0.43-0.082-0.579-0.25c-0.148-0.165-0.225-0.41-0.225-0.734v-4.514c0-0.729,0.262-1.093,0.788-1.093
					c0.271,0,0.465,0.084,0.583,0.255c0.118,0.171,0.184,0.421,0.198,0.755c0.192-0.334,0.39-0.584,0.593-0.755
					c0.208-0.171,0.477-0.255,0.818-0.255c0.343,0,0.67,0.084,0.991,0.255c0.322,0.171,0.482,0.398,0.482,0.678
					c0,0.197-0.069,0.363-0.204,0.488c-0.137,0.131-0.284,0.195-0.441,0.195c-0.062,0-0.207-0.039-0.433-0.112
					c-0.228-0.071-0.43-0.108-0.602-0.108c-0.237,0-0.433,0.064-0.582,0.186c-0.151,0.128-0.269,0.311-0.353,0.554
					c-0.081,0.247-0.137,0.541-0.17,0.878C265.759,481.615,265.745,482.029,265.745,482.515"/>
				<path style="fill:#AB9952;" d="M273.196,481.957h-3.171c0.006,0.367,0.078,0.694,0.222,0.974
					c0.147,0.279,0.337,0.491,0.578,0.635c0.241,0.142,0.502,0.212,0.793,0.212c0.194,0,0.37-0.021,0.531-0.07
					c0.159-0.043,0.316-0.116,0.466-0.213c0.151-0.095,0.287-0.199,0.415-0.313c0.126-0.109,0.292-0.26,0.494-0.449
					c0.084-0.071,0.203-0.109,0.355-0.109c0.168,0,0.301,0.046,0.406,0.138c0.104,0.092,0.152,0.219,0.152,0.386
					c0,0.147-0.056,0.317-0.167,0.512c-0.117,0.198-0.289,0.385-0.522,0.566c-0.234,0.178-0.524,0.329-0.874,0.446
					c-0.35,0.119-0.754,0.179-1.207,0.179c-1.044,0-1.852-0.296-2.429-0.889c-0.577-0.595-0.87-1.401-0.87-2.418
					c0-0.479,0.073-0.924,0.217-1.334c0.14-0.411,0.349-0.76,0.624-1.055c0.272-0.294,0.606-0.518,1.008-0.674
					c0.398-0.156,0.842-0.234,1.33-0.234c0.632,0,1.175,0.134,1.629,0.403c0.452,0.264,0.796,0.61,1.018,1.034
					c0.226,0.426,0.339,0.855,0.339,1.296c0,0.405-0.118,0.669-0.351,0.791C273.947,481.897,273.619,481.957,273.196,481.957
					 M270.024,481.035h2.938c-0.039-0.553-0.186-0.969-0.446-1.241c-0.261-0.276-0.599-0.413-1.025-0.413
					c-0.404,0-0.736,0.137-0.995,0.418C270.237,480.078,270.079,480.49,270.024,481.035"/>
				<path style="fill:#AB9952;" d="M279.938,481.957h-3.171c0.004,0.367,0.078,0.694,0.222,0.974
					c0.145,0.279,0.337,0.491,0.576,0.635c0.239,0.142,0.504,0.212,0.795,0.212c0.192,0,0.37-0.021,0.528-0.07
					c0.162-0.043,0.316-0.116,0.469-0.213c0.151-0.095,0.287-0.199,0.415-0.313c0.125-0.109,0.29-0.26,0.493-0.449
					c0.084-0.071,0.204-0.109,0.355-0.109c0.168,0,0.302,0.046,0.406,0.138c0.103,0.092,0.15,0.219,0.15,0.386
					c0,0.147-0.054,0.317-0.171,0.512c-0.111,0.198-0.284,0.385-0.519,0.566c-0.231,0.178-0.525,0.329-0.872,0.446
					c-0.349,0.119-0.755,0.179-1.209,0.179c-1.042,0-1.849-0.296-2.429-0.889c-0.577-0.595-0.868-1.401-0.868-2.418
					c0-0.479,0.073-0.924,0.217-1.334c0.142-0.411,0.349-0.76,0.622-1.055c0.272-0.294,0.608-0.518,1.009-0.674
					c0.399-0.156,0.844-0.234,1.331-0.234c0.63,0,1.174,0.134,1.633,0.403c0.45,0.264,0.791,0.61,1.013,1.034
					c0.225,0.426,0.341,0.855,0.341,1.296c0,0.405-0.12,0.669-0.351,0.791C280.688,481.897,280.36,481.957,279.938,481.957
					 M276.767,481.035h2.938c-0.04-0.553-0.19-0.969-0.447-1.241c-0.263-0.276-0.601-0.413-1.027-0.413
					c-0.403,0-0.735,0.137-0.995,0.418C276.978,480.078,276.819,480.49,276.767,481.035"/>
				<path style="fill:#AB9952;" d="M283.487,479.174v0.194c0.304-0.375,0.621-0.651,0.953-0.828
					c0.324-0.178,0.699-0.267,1.114-0.267c0.497,0,0.96,0.13,1.379,0.386c0.419,0.259,0.749,0.635,0.993,1.129
					c0.243,0.497,0.366,1.081,0.366,1.759c0,0.497-0.07,0.957-0.21,1.376c-0.14,0.417-0.336,0.767-0.58,1.05
					c-0.246,0.281-0.535,0.501-0.868,0.654c-0.339,0.151-0.695,0.227-1.08,0.227c-0.461,0-0.853-0.093-1.166-0.28
					c-0.314-0.182-0.614-0.458-0.901-0.816v2.433c0,0.71-0.26,1.069-0.778,1.069c-0.306,0-0.505-0.092-0.607-0.275
					c-0.095-0.187-0.146-0.452-0.146-0.807v-6.996c0-0.309,0.066-0.537,0.2-0.692c0.134-0.15,0.32-0.228,0.553-0.228
					c0.231,0,0.416,0.078,0.56,0.234C283.417,478.655,283.487,478.878,283.487,479.174 M286.665,481.529
					c0-0.428-0.067-0.796-0.197-1.102c-0.131-0.308-0.312-0.542-0.541-0.705c-0.229-0.164-0.489-0.248-0.77-0.248
					c-0.446,0-0.824,0.178-1.13,0.527c-0.308,0.354-0.462,0.872-0.462,1.558c0,0.642,0.153,1.146,0.46,1.504
					c0.305,0.358,0.679,0.536,1.133,0.536c0.268,0,0.519-0.079,0.748-0.233c0.232-0.158,0.416-0.392,0.552-0.704
					C286.595,482.35,286.665,481.972,286.665,481.529"/>
				<path style="fill:#AB9952;" d="M289.925,477.508c-0.227,0-0.418-0.071-0.577-0.209c-0.162-0.139-0.242-0.333-0.242-0.585
					c0-0.23,0.082-0.419,0.248-0.569c0.164-0.146,0.354-0.222,0.571-0.222c0.212,0,0.397,0.066,0.559,0.2
					c0.162,0.137,0.244,0.334,0.244,0.591c0,0.25-0.079,0.444-0.236,0.585C290.333,477.437,290.145,477.508,289.925,477.508
					 M290.728,479.182v4.689c0,0.322-0.078,0.568-0.231,0.732c-0.156,0.168-0.35,0.25-0.588,0.25c-0.238,0-0.428-0.084-0.58-0.254
					c-0.146-0.173-0.222-0.416-0.222-0.729v-4.642c0-0.319,0.076-0.559,0.222-0.722c0.152-0.165,0.342-0.245,0.58-0.245
					c0.238,0,0.432,0.079,0.588,0.245C290.65,478.67,290.728,478.896,290.728,479.182"/>
				<path style="fill:#AB9952;" d="M295.952,484.114l-1.428-2.354l-0.88,0.83v1.291c0,0.312-0.083,0.551-0.248,0.718
					c-0.161,0.17-0.354,0.254-0.566,0.254c-0.249,0-0.447-0.082-0.588-0.25c-0.142-0.165-0.215-0.41-0.215-0.734v-6.915
					c0-0.358,0.071-0.632,0.207-0.821c0.139-0.19,0.341-0.283,0.596-0.283c0.25,0,0.446,0.086,0.593,0.257
					c0.146,0.169,0.221,0.421,0.221,0.751v3.933l1.822-1.914c0.226-0.235,0.396-0.4,0.517-0.486c0.118-0.087,0.262-0.13,0.431-0.13
					c0.204,0,0.371,0.065,0.51,0.193c0.132,0.129,0.2,0.291,0.2,0.483c0,0.237-0.221,0.555-0.659,0.951l-0.861,0.789l1.662,2.614
					c0.121,0.196,0.212,0.34,0.265,0.441c0.052,0.099,0.081,0.2,0.081,0.289c0,0.258-0.072,0.459-0.213,0.61
					c-0.14,0.148-0.327,0.221-0.554,0.221c-0.198,0-0.352-0.051-0.458-0.16C296.282,484.586,296.133,484.392,295.952,484.114"/>
				<path style="fill:#AB9952;" d="M299.474,484.854c-0.245,0-0.455-0.079-0.634-0.238c-0.178-0.156-0.268-0.378-0.268-0.665
					c0-0.241,0.086-0.449,0.256-0.622c0.172-0.175,0.38-0.262,0.63-0.262c0.248,0,0.46,0.087,0.639,0.258
					c0.174,0.172,0.264,0.383,0.264,0.626c0,0.283-0.089,0.505-0.264,0.662C299.919,484.775,299.711,484.854,299.474,484.854"/>
				<path style="fill:#AB9952;" d="M307.536,482.848c0,0.2-0.06,0.418-0.182,0.646c-0.12,0.231-0.305,0.449-0.554,0.656
					c-0.247,0.208-0.557,0.377-0.934,0.502c-0.375,0.126-0.8,0.192-1.269,0.192c-1.004,0-1.786-0.294-2.349-0.876
					c-0.56-0.585-0.841-1.368-0.841-2.35c0-0.667,0.128-1.254,0.387-1.765c0.254-0.509,0.627-0.905,1.113-1.183
					c0.487-0.28,1.072-0.419,1.746-0.419c0.421,0,0.805,0.061,1.158,0.184c0.35,0.122,0.645,0.282,0.891,0.474
					c0.242,0.197,0.428,0.402,0.556,0.62c0.129,0.22,0.192,0.426,0.192,0.617c0,0.192-0.071,0.357-0.214,0.492
					c-0.147,0.134-0.322,0.203-0.524,0.203c-0.137,0-0.248-0.035-0.338-0.104c-0.09-0.07-0.19-0.181-0.299-0.339
					c-0.198-0.299-0.404-0.526-0.622-0.674c-0.214-0.152-0.488-0.226-0.821-0.226c-0.476,0-0.865,0.186-1.158,0.561
					c-0.292,0.372-0.44,0.888-0.44,1.534c0,0.305,0.039,0.587,0.114,0.842c0.073,0.255,0.182,0.472,0.325,0.652
					c0.144,0.179,0.315,0.316,0.516,0.409c0.203,0.096,0.425,0.141,0.665,0.141c0.326,0,0.604-0.075,0.836-0.225
					c0.235-0.151,0.439-0.38,0.616-0.689c0.099-0.182,0.204-0.324,0.318-0.427c0.114-0.102,0.256-0.156,0.422-0.156
					c0.198,0,0.363,0.077,0.491,0.226C307.469,482.517,307.536,482.679,307.536,482.848"/>
				<path style="fill:#AB9952;" d="M314.53,481.56c0,0.481-0.076,0.928-0.222,1.337c-0.154,0.408-0.37,0.758-0.656,1.049
					c-0.285,0.293-0.626,0.518-1.02,0.675c-0.4,0.154-0.844,0.234-1.337,0.234c-0.491,0-0.933-0.08-1.326-0.239
					c-0.389-0.156-0.732-0.384-1.016-0.676c-0.288-0.298-0.505-0.646-0.657-1.048c-0.143-0.402-0.219-0.847-0.219-1.332
					c0-0.491,0.078-0.941,0.224-1.349c0.151-0.409,0.368-0.758,0.649-1.046c0.282-0.289,0.621-0.511,1.019-0.669
					c0.402-0.156,0.844-0.234,1.326-0.234c0.49,0,0.936,0.078,1.337,0.239c0.399,0.157,0.739,0.384,1.027,0.674
					c0.286,0.297,0.502,0.643,0.65,1.045C314.455,480.628,314.53,481.071,314.53,481.56 M312.903,481.56
					c0-0.662-0.146-1.176-0.436-1.543c-0.289-0.372-0.681-0.555-1.171-0.555c-0.317,0-0.597,0.082-0.839,0.246
					c-0.242,0.164-0.426,0.406-0.556,0.727c-0.131,0.321-0.197,0.696-0.197,1.124c0,0.424,0.064,0.792,0.194,1.108
					c0.13,0.319,0.314,0.561,0.553,0.729c0.241,0.167,0.522,0.253,0.845,0.253c0.49,0,0.882-0.185,1.171-0.557
					C312.756,482.723,312.903,482.21,312.903,481.56"/>
				<path style="fill:#AB9952;" d="M320.712,481.679v2.154c0,0.342-0.075,0.594-0.231,0.767c-0.156,0.17-0.357,0.255-0.611,0.255
					c-0.245,0-0.446-0.085-0.595-0.255c-0.155-0.173-0.233-0.425-0.233-0.767v-2.582c0-0.408-0.013-0.726-0.04-0.953
					c-0.029-0.221-0.105-0.41-0.227-0.552c-0.123-0.147-0.318-0.22-0.582-0.22c-0.532,0-0.88,0.181-1.048,0.551
					c-0.167,0.36-0.254,0.883-0.254,1.567v2.189c0,0.336-0.076,0.591-0.226,0.765c-0.156,0.171-0.355,0.258-0.603,0.258
					c-0.247,0-0.448-0.087-0.604-0.258c-0.157-0.173-0.235-0.428-0.235-0.765v-4.637c0-0.306,0.07-0.538,0.209-0.695
					c0.143-0.161,0.329-0.239,0.556-0.239c0.223,0,0.407,0.077,0.557,0.222c0.148,0.149,0.221,0.354,0.221,0.615v0.153
					c0.283-0.334,0.584-0.582,0.903-0.738c0.323-0.162,0.676-0.241,1.07-0.241c0.407,0,0.757,0.082,1.049,0.243
					c0.294,0.163,0.533,0.41,0.725,0.735c0.275-0.33,0.568-0.577,0.881-0.738c0.313-0.161,0.658-0.241,1.039-0.241
					c0.441,0,0.826,0.089,1.146,0.262c0.319,0.174,0.558,0.425,0.717,0.747c0.138,0.295,0.206,0.756,0.206,1.385v3.164
					c0,0.342-0.076,0.594-0.23,0.767c-0.154,0.17-0.359,0.255-0.612,0.255c-0.247,0-0.446-0.087-0.603-0.258
					c-0.156-0.173-0.235-0.428-0.235-0.765v-2.726c0-0.349-0.015-0.627-0.043-0.836c-0.029-0.211-0.11-0.388-0.239-0.529
					c-0.132-0.142-0.331-0.215-0.596-0.215c-0.214,0-0.416,0.066-0.609,0.192c-0.192,0.124-0.342,0.298-0.45,0.508
					C320.774,480.501,320.712,480.985,320.712,481.679"/>
			</g>
			<g>
				<path style="fill:#AB9952;" d="M245.272,481.167c-0.001-0.003-0.001-0.006-0.001-0.011
					C245.271,481.161,245.271,481.164,245.272,481.167z"/>
				<path style="fill:#AB9952;" d="M245.354,481.685c0.001,0,0.001,0,0.001,0c-0.031-0.148-0.055-0.294-0.074-0.439
					C245.3,481.393,245.324,481.54,245.354,481.685z"/>
				<path style="fill:#AB9952;" d="M245.89,483.189c-0.004-0.006-0.007-0.013-0.011-0.021
					C245.883,483.176,245.886,483.183,245.89,483.189z"/>
				<path style="fill:#AB9952;" d="M245.839,483.089c-0.014-0.027-0.027-0.056-0.041-0.084
					C245.811,483.035,245.825,483.062,245.839,483.089z"/>
				<path style="fill:#AB9952;" d="M245.504,482.265c0.079,0.25,0.175,0.492,0.286,0.724c-0.113-0.236-0.206-0.479-0.284-0.724
					C245.506,482.265,245.505,482.265,245.504,482.265z"/>
				<path style="fill:#AB9952;" d="M251.545,474.957c0.313,0,0.544,0.025,0.809,0.07l0.075-0.477c0,0-0.732-0.225-1.694-0.146
					l-0.076-0.259c0.299-0.063,0.524-0.329,0.524-0.646c0-0.364-0.296-0.658-0.661-0.658s-0.66,0.295-0.66,0.658
					c0,0.317,0.224,0.583,0.523,0.646l0.084,0.289c-1.021,0.14-1.834,0.539-1.834,0.539l0.144,0.441
					c0.618-0.206,1.154-0.331,1.64-0.383C250.895,474.979,251.253,474.957,251.545,474.957z"/>
				<path style="fill:#AB9952;" d="M245.878,477.368l0.004-0.005c0.024-0.031,0.047-0.06,0.071-0.089l-0.196-0.141l-0.305-0.223
					c-0.017,0.024-0.497,0.465-0.876,1.28c-0.016-0.026-0.035-0.051-0.056-0.074c-0.113-0.124-0.272-0.187-0.474-0.184
					c-0.003,0-0.006,0-0.009,0c-0.125,0-0.211-0.042-0.267-0.092c0.056-0.071,0.089-0.16,0.089-0.258
					c0-0.23-0.187-0.418-0.418-0.418c-0.23,0-0.418,0.188-0.418,0.418c0,0.231,0.187,0.418,0.418,0.418
					c0.036,0,0.071-0.006,0.104-0.013c0.103,0.114,0.266,0.214,0.505,0.209c0.123-0.001,0.213,0.03,0.273,0.097
					c0.069,0.076,0.093,0.185,0.1,0.267c-0.001,0.001-0.001,0.003-0.002,0.003c-0.272,0.743-0.194,1.669-0.194,1.669l0.661,0.026
					c0.014-0.337,0.062-0.927,0.232-1.394C245.449,477.959,245.861,477.392,245.878,477.368z"/>
				<path style="fill:#AB9952;" d="M257.295,475.509c-0.23,0-0.418,0.187-0.418,0.418c0,0.036,0.005,0.07,0.015,0.103
					c-0.115,0.104-0.214,0.267-0.21,0.507c0.002,0.123-0.03,0.212-0.096,0.273c-0.053,0.047-0.12,0.072-0.185,0.088
					c-0.492-0.689-1.097-1.11-1.097-1.11l-0.474,0.508c0.358,0.326,0.724,0.734,1.08,1.244c0.246,0.352,0.499,0.806,0.71,1.259
					l0.64-0.304c0,0-0.292-0.722-0.704-1.37c0.071-0.025,0.143-0.064,0.207-0.12c0.125-0.113,0.187-0.273,0.183-0.474
					c-0.001-0.13,0.042-0.218,0.093-0.276c0.071,0.054,0.16,0.089,0.258,0.089c0.232,0,0.419-0.187,0.419-0.418
					C257.714,475.696,257.527,475.509,257.295,475.509z"/>
				<path style="fill:#AB9952;" d="M255.634,481.261c-0.881,0.429-2.33,0.996-4.238,1.262c-0.749,0.104-1.475,0.142-2.143,0.142
					c-0.869,0-1.637-0.065-2.227-0.139c-0.673-0.085-1.198-0.189-1.52-0.261c0.077,0.245,0.171,0.488,0.284,0.724
					c0.002,0.006,0.005,0.013,0.008,0.017c0.013,0.027,0.027,0.056,0.041,0.084c0.013,0.027,0.027,0.054,0.04,0.079
					c0.004,0.007,0.007,0.015,0.011,0.021c0.189,0.357,0.417,0.684,0.675,0.968c0.9,0.984,1.817,1.14,1.826,1.141l0.014,0.002
					l0.013,0.005c0.008,0.003,0.821,0.266,2.057,0.266c1.216,0,2.409-0.245,3.546-0.729c0.842-0.431,1.639-1.085,2.034-1.669
					c0.305-0.452,0.525-0.933,0.656-1.434c0.07-0.266,0.124-0.692,0.092-1.141C256.556,480.765,256.164,481.003,255.634,481.261z"/>
				<path style="fill:#AB9952;" d="M246.161,477.577c-0.026,0.037-0.408,0.578-0.71,1.408c-0.226,0.622-0.216,1.527-0.216,1.538
					v0.002c0,0.212,0.012,0.423,0.035,0.632c0,0.005,0,0.008,0.001,0.011c0.002,0.027,0.007,0.052,0.009,0.079
					c0.019,0.145,0.043,0.291,0.074,0.439c0.438,0.111,3.049,0.72,5.968,0.314c1.829-0.255,3.218-0.795,4.062-1.204
					c0.701-0.34,1.151-0.648,1.325-0.774c-0.173-0.643-0.651-1.65-1.089-2.279c-1.253-1.791-2.604-2.25-3.298-2.365
					c-0.265-0.043-0.477-0.068-0.777-0.068c-0.28,0-0.626,0.023-1.089,0.071c-0.465,0.048-0.982,0.17-1.583,0.372
					c-0.842,0.282-1.605,0.724-2.204,1.28l-0.02,0.019C246.56,477.134,246.374,477.306,246.161,477.577z M253.829,477.16
					c0.601,0,1.089,0.488,1.089,1.09c0,0.601-0.489,1.09-1.089,1.09c-0.601,0-1.089-0.489-1.089-1.09
					C252.74,477.649,253.228,477.16,253.829,477.16z M248.678,477.117c0.973,0,1.761,0.789,1.761,1.761s-0.788,1.759-1.761,1.759
					c-0.972,0-1.76-0.787-1.76-1.759S247.707,477.117,248.678,477.117z"/>
			</g>
		</g>
	</g>
</g>
</svg>
